g Propeller1
v -5.37429287E-06 -4.24791688E-06 -1.59620345E-06
v -1.04637002E-05 -2.07040994E-05 -5.87424211E-06
v -8.75675778E-06 -8.42625013E-06 -4.54239171E-06
v -5.74995966E-06 -2.01976291E-05 -1.74969159E-06
v -4.1906398E-07 -3.64015273E-06 1.22787549E-06
v -1.33050262E-05 -4.77726062E-05 -6.53872667E-06
v -4.56245459E-07 -2.0096335E-05 1.2772789E-06
v 5.19212517E-06 -4.24791688E-06 2.24964106E-06
v -7.28496934E-06 -4.77725735E-05 -1.78293658E-06
v -1.9002262E-05 -9.41489998E-05 -7.57720136E-06
v 5.5775331E-06 -2.01976291E-05 2.30417572E-06
v 9.67698361E-06 -8.42625013E-06 2.1669357E-06
v 1.18850476E-05 -2.07040994E-05 2.12201576E-06
v -7.16165744E-07 -4.77725735E-05 1.62310084E-06
v -1.05157151E-05 -9.41490653E-05 -1.79512892E-06
v -2.25664317E-05 -0.000151745597 -8.25337065E-06
v 6.76714899E-06 -4.77725735E-05 2.77954882E-06
v 1.47992414E-05 -4.77726062E-05 2.58624323E-06
v -1.27197791E-06 -9.41489998E-05 2.36062056E-06
v -1.25214137E-05 -0.000151745568 -1.84451255E-06
v -1.93084052E-05 -0.000208734375 -7.58123679E-06
v 9.23367043E-06 -9.41490289E-05 3.80582992E-06
v 2.04964435E-05 -9.41489998E-05 3.62471542E-06
v -1.05762301E-05 -0.000210799029 -1.93145365E-06
v -1.24555836E-05 -0.000251166231 -5.3924141E-06
v -6.20960282E-06 -0.000268200936 -1.96910673E-06
v -1.59725221E-06 -0.000151745509 2.78054881E-06
v 1.07921096E-05 -0.000151745509 4.43261297E-06
v 2.4060615E-05 -0.000151745597 4.30087994E-06
v -1.20407719E-06 -0.000211212158 2.22652307E-06
v -3.57434402E-07 -0.000270678662 1.05848653E-06
v 9.37609366E-06 -0.000210799102 3.78938103E-06
v 2.07335725E-05 -0.000208734375 3.81841619E-06
v 6.11605901E-06 -0.000268200878 2.37904214E-06
v 1.34061456E-05 -0.000251166231 2.93357903E-06
v 6.86850717E-06 5.31778414E-06 -1.38456526E-05
v 1.19579463E-05 2.17739016E-05 -1.81236883E-05
v 1.02509721E-05 9.49605328E-06 -1.6791837E-05
v 7.24423717E-06 2.12674622E-05 -1.3999138E-05
v 1.91331037E-06 4.71001977E-06 -1.10215715E-05
v 1.47992414E-05 4.88423393E-05 -1.87881742E-05
v 1.95046005E-06 2.11661372E-05 -1.09721668E-05
v -3.69784698E-06 5.31778414E-06 -9.99980603E-06
v 8.77921593E-06 4.88424375E-05 -1.40323828E-05
v 2.04964435E-05 9.52187911E-05 -1.98266462E-05
v -4.0832233E-06 2.12674331E-05 -9.9452709E-06
v -8.1827684E-06 9.49608511E-06 -1.00825118E-05
v -1.03908005E-05 2.17739016E-05 -1.01274309E-05
v 2.21044388E-06 4.88424048E-05 -1.06263451E-05
v 1.20099303E-05 9.52187911E-05 -1.40445736E-05
v 2.4060615E-05 0.000152815352 -2.05028173E-05
v -5.27290331E-06 4.88424048E-05 -9.46989712E-06
v -1.33050262E-05 4.88423393E-05 -9.66320295E-06
v 2.76628793E-06 9.52187911E-05 -9.88882221E-06
v 1.40156617E-05 0.000152815352 -1.40939555E-05
v 2.08025886E-05 0.00020980413 -1.98306789E-05
v -7.73939246E-06 9.52188275E-05 -8.44361421E-06
v -1.90022311E-05 9.52187911E-05 -8.62473007E-06
v 1.20705408E-05 0.00021186893 -1.41808951E-05
v 1.3949797E-05 0.000252236001 -1.76418544E-05
v 7.7038485E-06 0.000269270677 -1.42185454E-05
v 3.09153052E-06 0.000152815337 -9.46889486E-06
v -9.29783073E-06 0.000152815337 -7.81682957E-06
v -2.25663989E-05 0.000152815337 -7.94856169E-06
v 2.69829184E-06 0.000212281913 -1.00229181E-05
v 1.8516489E-06 0.00027174846 -1.11909521E-05
v -7.88181478E-06 0.00021186893 -8.46005969E-06
v -1.92393272E-05 0.000209804115 -8.43102589E-06
v -4.62181379E-06 0.000269270677 -9.87039857E-06
v -1.19118995E-05 0.000252236001 -9.31586237E-06
v 1.8002007E-05 -2.3257148E-07 -5.26329859E-06
v 1.67776598E-05 6.85148871E-06 -1.84891851E-05
v 1.82081294E-05 -2.32539648E-07 -1.84891851E-05
v 1.65874862E-05 6.77273238E-06 -5.26329904E-06
v 1.27799503E-05 1.2872184E-05 -1.84891851E-05
v 1.26342165E-05 1.27265457E-05 -5.26329859E-06
v 1.60755098E-05 6.56069005E-06 2.47300659E-06
v 1.74472461E-05 -2.3257148E-07 2.47300568E-06
v 1.22419005E-05 1.23341661E-05 2.47300659E-06
v 1.50994001E-05 6.15630915E-06 6.78073502E-06
v 1.63894838E-05 -2.3257148E-07 6.78073502E-06
v 1.1493973E-05 1.15861749E-05 6.78073229E-06
v 1.35557002E-05 5.51690209E-06 1.024619E-05
v 1.47166656E-05 -2.3257148E-07 1.02461845E-05
v 1.03111061E-05 1.04033397E-05 1.02461872E-05
v 1.14803161E-05 4.6572718E-06 1.32850319E-05
v 1.24676953E-05 -2.32539648E-07 1.32850319E-05
v 8.72086457E-06 8.81313008E-06 1.32850319E-05
v 8.98756571E-06 3.62475316E-06 1.57682207E-05
v 9.75659896E-06 -2.32603341E-07 1.5770036E-05
v 6.8038853E-06 6.89611943E-06 1.5770036E-05
v 6.36604773E-06 2.53884991E-06 1.75585665E-05
v 6.84733777E-06 -2.32603341E-07 1.75730656E-05
v 4.74661556E-06 4.83891336E-06 1.75730656E-05
v 4.21636605E-06 1.64846779E-06 1.84741293E-05
v 3.89847673E-06 -2.3257148E-07 1.86256984E-05
v -3.24868779E-07 -2.32603341E-07 1.91170329E-05
v 2.66149232E-06 2.7537892E-06 1.86256984E-05
v 4.56503767E-06 1.15725825E-05 1.32850319E-05
v 3.53251949E-06 9.07986305E-06 1.57682207E-05
v 2.44661646E-06 6.45831324E-06 1.75585665E-05
v 1.55620239E-06 4.30863156E-06 1.8474133E-05
v 2.66149232E-06 2.7537892E-06 1.86256984E-05
v -3.24868779E-07 -2.32603341E-07 1.91170329E-05
v -3.24836947E-07 3.99083774E-06 1.86257002E-05
v -3.24805114E-07 6.9395719E-06 1.75730656E-05
v 5.42463658E-06 1.36479339E-05 1.024619E-05
v -3.24836947E-07 9.84892813E-06 1.5770036E-05
v 6.06407593E-06 1.5191602E-05 6.78073229E-06
v -3.24868779E-07 1.25599599E-05 1.32850319E-05
v 6.46839271E-06 1.61678054E-05 2.47300659E-06
v -3.24836947E-07 1.48089321E-05 1.02461918E-05
v -3.24805114E-07 1.64817156E-05 6.78073229E-06
v -3.0962583E-06 6.45831324E-06 1.75585665E-05
v -4.18212994E-06 9.07983122E-06 1.57682207E-05
v -5.21467973E-06 1.15726143E-05 1.32850319E-05
v -2.2058764E-06 4.30863156E-06 1.84741348E-05
v -3.24836947E-07 3.99083774E-06 1.86257002E-05
v -3.24868779E-07 -2.32603341E-07 1.91170329E-05
v -3.31122965E-06 2.7537576E-06 1.86257002E-05
v -5.39628991E-06 4.83888152E-06 1.75730656E-05
v -6.07434276E-06 1.36479339E-05 1.024619E-05
v -7.45352736E-06 6.89611943E-06 1.5770036E-05
v -9.37053846E-06 8.81316282E-06 1.32850319E-05
v -6.71371799E-06 1.51916338E-05 6.78073229E-06
v -1.09607472E-05 1.04033397E-05 1.02461918E-05
v -3.24836947E-07 1.75394798E-05 2.47300659E-06
v 6.6804987E-06 1.66797836E-05 -5.26329859E-06
v 6.75925457E-06 1.68699262E-05 -1.84891851E-05
v 1.27799503E-05 1.2872184E-05 -1.84891851E-05
v -7.01572208E-06 2.53888152E-06 1.75585665E-05
v -9.63727143E-06 3.62475316E-06 1.57682207E-05
v -4.86607178E-06 1.64846779E-06 1.8474133E-05
v -3.31122965E-06 2.7537576E-06 1.86257002E-05
v -3.24868779E-07 -2.32603341E-07 1.91170329E-05
v -4.54821475E-06 -2.3257148E-07 1.86256984E-05
v -7.49694846E-06 -2.32603341E-07 1.75730656E-05
v -1.21300227E-05 4.6572718E-06 1.32850319E-05
v -1.04063674E-05 -2.32603341E-07 1.5770036E-05
v -1.42053404E-05 5.51693438E-06 1.024619E-05
v -1.31173683E-05 -2.3257148E-07 1.328503E-05
v -1.21436151E-05 1.15862067E-05 6.78073229E-06
v -7.11806615E-06 1.61678054E-05 2.47300659E-06
v -3.24836947E-07 1.80943043E-05 -5.26329859E-06
v -3.24836947E-07 1.8300394E-05 -1.84891851E-05
v 6.75925457E-06 1.68699262E-05 -1.84891851E-05
v -7.40889664E-06 1.68699262E-05 -1.84891851E-05
v -7.33014122E-06 1.66797836E-05 -5.26329859E-06
v -1.34296233E-05 1.28722149E-05 -1.84891851E-05
v -1.28915744E-05 1.23341661E-05 2.47300659E-06
v -1.57490413E-05 6.15637327E-06 6.78073638E-06
v -1.32838904E-05 1.2726513E-05 -5.26329768E-06
v -1.53663077E-05 -2.32539648E-07 1.02461918E-05
v -1.6725151E-05 6.56069005E-06 2.47300659E-06
v -1.70391249E-05 -2.32539648E-07 6.78073229E-06
v -1.74273337E-05 6.85152054E-06 -1.84891851E-05
v -1.72371601E-05 6.77273238E-06 -5.26329859E-06
v -1.88577687E-05 -2.32539648E-07 -1.84891851E-05
v -1.80968545E-05 -2.3257148E-07 2.47300659E-06
v -1.86516809E-05 -2.3257148E-07 -5.26329768E-06
v -1.74273009E-05 -7.31666341E-06 -1.84891851E-05
v -1.72371601E-05 -7.23790708E-06 -5.26329859E-06
v -1.34296233E-05 -1.33372941E-05 -1.84891851E-05
v -1.6725151E-05 -7.02580064E-06 2.47300659E-06
v -1.57490085E-05 -6.62145203E-06 6.78073502E-06
v -1.42053404E-05 -5.98204497E-06 1.024619E-05
v -1.32839214E-05 -1.31915922E-05 -5.26329768E-06
v -7.40892892E-06 -1.73350672E-05 -1.84891851E-05
v -1.28915744E-05 -1.27993717E-05 2.47300659E-06
v -1.21436151E-05 -1.20513496E-05 6.78073229E-06
v -7.33014122E-06 -1.71449265E-05 -5.26329859E-06
v -3.24836947E-07 -1.87655369E-05 -1.84891851E-05
v -7.11809844E-06 -1.66329501E-05 2.47300659E-06
v -1.21299909E-05 -5.12241422E-06 1.32850319E-05
v -1.09607472E-05 -1.08685135E-05 1.02461918E-05
v -6.71374937E-06 -1.5656713E-05 6.78073229E-06
v -9.63723869E-06 -4.08989581E-06 1.57682207E-05
v -9.37053846E-06 -9.27824112E-06 1.32850319E-05
v -6.07434276E-06 -1.41130758E-05 1.024619E-05
v -7.01569024E-06 -3.00405668E-06 1.75585665E-05
v -7.45352736E-06 -7.36129323E-06 1.5770036E-05
v -5.21471202E-06 -1.20376935E-05 1.32850319E-05
v -4.86610361E-06 -2.11357906E-06 1.84741293E-05
v -4.54821475E-06 -2.3257148E-07 1.86256984E-05
v -3.24868779E-07 -2.32603341E-07 1.91170329E-05
v -3.31122965E-06 -3.21893253E-06 1.86256984E-05
v -5.39632174E-06 -5.30402394E-06 1.75730656E-05
v -4.18216177E-06 -9.54494226E-06 1.57682207E-05
v -3.09629013E-06 -6.92342428E-06 1.75585665E-05
v -2.2058764E-06 -4.77380581E-06 1.84741293E-05
v -3.31122965E-06 -3.21893253E-06 1.86256984E-05
v -3.24868779E-07 -2.32603341E-07 1.91170329E-05
v -3.24868779E-07 -4.45585329E-06 1.86256984E-05
v -3.24805114E-07 -7.40471432E-06 1.75730656E-05
v -3.24836947E-07 -1.03140392E-05 1.5770036E-05
v -3.24836947E-07 -1.30251346E-05 1.32850319E-05
v -3.24836947E-07 -1.5274074E-05 1.02461918E-05
v -3.24805114E-07 -1.69468585E-05 6.78073229E-06
v -3.24805114E-07 -1.80046536E-05 2.47300659E-06
v -3.24836947E-07 -1.8559509E-05 -5.26329768E-06
v 2.44664807E-06 -6.92339245E-06 1.75585665E-05
v 3.53251949E-06 -9.54494226E-06 1.57682207E-05
v 4.56503767E-06 -1.20377244E-05 1.32850319E-05
v 5.42466887E-06 -1.4113044E-05 1.024619E-05
v 6.06407593E-06 -1.56567439E-05 6.78073638E-06
v 1.55620239E-06 -4.77383765E-06 1.8474133E-05
v -3.24868779E-07 -4.45585329E-06 1.86256984E-05
v -3.24868779E-07 -2.32603341E-07 1.91170329E-05
v 2.66155598E-06 -3.2189007E-06 1.86256984E-05
v 4.74664739E-06 -5.30402394E-06 1.75730656E-05
v 6.80385301E-06 -7.36123002E-06 1.5770036E-05
v 8.72083365E-06 -9.27824112E-06 1.328503E-05
v 6.46839271E-06 -1.66328846E-05 2.47300659E-06
v 1.03110733E-05 -1.08685463E-05 1.02461918E-05
v 1.14939421E-05 -1.20513178E-05 6.78073229E-06
v 6.36604773E-06 -3.00405668E-06 1.75585665E-05
v 8.98753387E-06 -4.08995993E-06 1.57682207E-05
v 1.14803161E-05 -5.12241422E-06 1.328503E-05
v 4.21642926E-06 -2.11364272E-06 1.84741293E-05
v 2.66155598E-06 -3.2189007E-06 1.86256984E-05
v -3.24868779E-07 -2.32603341E-07 1.91170329E-05
v 3.89847673E-06 -2.3257148E-07 1.86256984E-05
v 6.84733777E-06 -2.32603341E-07 1.75730656E-05
v 9.75659896E-06 -2.32603341E-07 1.5770036E-05
v 1.24676953E-05 -2.32539648E-07 1.32850319E-05
v 1.35557002E-05 -5.9820768E-06 1.02461845E-05
v 1.47166656E-05 -2.3257148E-07 1.02461845E-05
v 1.50993683E-05 -6.62145203E-06 6.78073502E-06
v 1.63894838E-05 -2.3257148E-07 6.78073502E-06
v 1.22419005E-05 -1.27993408E-05 2.47300659E-06
v 1.60755098E-05 -7.02576881E-06 2.47300454E-06
v 1.74472461E-05 -2.3257148E-07 2.47300568E-06
v 6.6804987E-06 -1.71449265E-05 -5.26329859E-06
v 1.26341847E-05 -1.31915922E-05 -5.26329768E-06
v 1.6587519E-05 -7.23787525E-06 -5.26329859E-06
v 1.8002007E-05 -2.3257148E-07 -5.26329859E-06
v 1.82081294E-05 -2.32539648E-07 -1.84891851E-05
v 1.67776598E-05 -7.31663113E-06 -1.84891851E-05
v 1.27799503E-05 -1.3337326E-05 -1.84891851E-05
v 6.75925457E-06 -1.73350054E-05 -1.84891851E-05
v 6.75925457E-06 -1.73350054E-05 -1.84891851E-05
v 6.77052367E-06 -1.73622539E-05 -3.49938418E-05
v -3.24836947E-07 -1.87949827E-05 -3.49938418E-05
v 1.28007687E-05 -1.33581771E-05 -3.49938418E-05
v -7.40892892E-06 -1.73350672E-05 -1.84891851E-05
v 1.27799503E-05 -1.3337326E-05 -1.84891851E-05
v -7.42016618E-06 -1.73622211E-05 -3.49938418E-05
v 1.68047827E-05 -7.32793205E-06 -3.49938418E-05
v -1.34296233E-05 -1.33372941E-05 -1.84891851E-05
v 1.67776598E-05 -7.31663113E-06 -1.84891851E-05
v 1.82375115E-05 -2.3257148E-07 -3.49938418E-05
v 1.82081294E-05 -2.32539648E-07 -1.84891851E-05
v -1.34504417E-05 -1.33582089E-05 -3.49938418E-05
v -1.74273009E-05 -7.31666341E-06 -1.84891851E-05
v -1.74544875E-05 -7.32790022E-06 -3.49938418E-05
v -1.88577687E-05 -2.32539648E-07 -1.84891851E-05
v -1.88872473E-05 -2.3257148E-07 -3.49938418E-05
v -1.74273337E-05 6.85152054E-06 -1.84891851E-05
v -1.74545185E-05 6.8627578E-06 -3.49938418E-05
v -1.74273337E-05 6.85152054E-06 -1.84891851E-05
v -1.34504417E-05 1.28930023E-05 -3.49938418E-05
v 1.82081294E-05 -2.32539648E-07 -1.84891851E-05
v 1.68047827E-05 6.86278963E-06 -3.49938418E-05
v 1.82375115E-05 -2.3257148E-07 -3.49938418E-05
v 1.67776598E-05 6.85148871E-06 -1.84891851E-05
v 1.28007377E-05 1.28930023E-05 -3.49938418E-05
v 6.77049184E-06 1.6897111E-05 -3.49938418E-05
v 6.75925457E-06 1.68699262E-05 -1.84891851E-05
v -3.24868779E-07 1.83298398E-05 -3.49938418E-05
v -3.24836947E-07 1.8300394E-05 -1.84891851E-05
v -7.42016618E-06 1.68970801E-05 -3.49938418E-05
v -7.40889664E-06 1.68699262E-05 -1.84891851E-05
v -1.34504417E-05 1.28930023E-05 -3.49938418E-05
v -1.34296233E-05 1.28722149E-05 -1.84891851E-05
vt 0 0.75
vt 0.0546264648 1
vt 0 1
vt 0.0604553223 0.750976562
vt 0 0.5
vt 0.10925293 1
vt 0.0616149902 0.5
vt 0 0.25
vt 0.160644531 0.759765625
vt 0.33203125 1.07226562
vt 0.0604553223 0.249023438
vt 0 0
vt 0.0546264648 0
vt 0.165283203 0.5
vt 0.337646484 0.78515625
vt 0.5546875 1.14453125
vt 0.160644531 0.239990234
vt 0.10925293 0
vt 0.338867188 0.5
vt 0.5546875 0.802246094
vt 0.77734375 1.07226562
vt 0.337646484 0.21496582
vt 0.33203125 -0.0720825195
vt 0.77734375 0.784179688
vt 1 1
vt 1 0.75
vt 0.5546875 0.5
vt 0.5546875 0.197998047
vt 0.5546875 -0.144165039
vt 0.77734375 0.5
vt 1 0.5
vt 0.77734375 0.215942383
vt 0.77734375 -0.0720825195
vt 1 0.25
vt 1 0
vt 0 0.75
vt 0.0546264648 1
vt 0 1
vt 0.0604553223 0.750976562
vt 0 0.5
vt 0.10925293 1
vt 0.0616149902 0.5
vt 0 0.25
vt 0.160644531 0.759765625
vt 0.33203125 1.07226562
vt 0.0604553223 0.249023438
vt 0 0
vt 0.0546264648 0
vt 0.165283203 0.5
vt 0.337646484 0.78515625
vt 0.5546875 1.14453125
vt 0.160644531 0.239990234
vt 0.10925293 0
vt 0.338867188 0.5
vt 0.5546875 0.802246094
vt 0.77734375 1.07226562
vt 0.337646484 0.21496582
vt 0.33203125 -0.0720825195
vt 0.77734375 0.784179688
vt 1 1
vt 1 0.75
vt 0.5546875 0.5
vt 0.5546875 0.197998047
vt 0.5546875 -0.144165039
vt 0.77734375 0.5
vt 1 0.5
vt 0.77734375 0.215942383
vt 0.77734375 -0.0720825195
vt 1 0.25
vt 1 0
vt 1 0.5
vt 0.9375 0.5
vt 1 0.5
vt 0.9375 0.5
vt 0.875 0.5
vt 0.875 0.5
vt 0.9375 0.5625
vt 1 0.5625
vt 0.875 0.5625
vt 0.9375 0.625
vt 1 0.625
vt 0.875 0.625
vt 0.9375 0.6875
vt 1 0.6875
vt 0.875 0.6875
vt 0.9375 0.75
vt 1 0.75
vt 0.875 0.75
vt 0.9375 0.812011719
vt 1 0.8125
vt 0.875 0.812011719
vt 0.9375 0.870605469
vt 1 0.875
vt 0.875 0.875
vt 0.9375 0.916015625
vt 0.96875 0.9375
vt 0.9375 1
vt 0.90625 0.9375
vt 0.8125 0.75
vt 0.8125 0.812011719
vt 0.8125 0.870605469
vt 0.8125 0.916015625
vt 0.84375 0.9375
vt 0.8125 1
vt 0.78125 0.9375
vt 0.75 0.875
vt 0.8125 0.6875
vt 0.75 0.812011719
vt 0.8125 0.625
vt 0.75 0.75
vt 0.8125 0.5625
vt 0.75 0.6875
vt 0.75 0.625
vt 0.6875 0.870605469
vt 0.6875 0.812011719
vt 0.6875 0.75
vt 0.6875 0.916015625
vt 0.71875 0.9375
vt 0.6875 1
vt 0.65625 0.9375
vt 0.625 0.875
vt 0.6875 0.6875
vt 0.625 0.812011719
vt 0.625 0.75
vt 0.6875 0.625
vt 0.625 0.6875
vt 0.75 0.5625
vt 0.8125 0.5
vt 0.8125 0.5
vt 0.875 0.5
vt 0.5625 0.870605469
vt 0.5625 0.812011719
vt 0.5625 0.916015625
vt 0.59375 0.9375
vt 0.5625 1
vt 0.53125 0.9375
vt 0.5 0.875
vt 0.5625 0.75
vt 0.5 0.812011719
vt 0.5625 0.6875
vt 0.5 0.75
vt 0.625 0.625
vt 0.6875 0.5625
vt 0.75 0.5
vt 0.75 0.5
vt 0.8125 0.5
vt 0.6875 0.5
vt 0.6875 0.5
vt 0.625 0.5
vt 0.625 0.5625
vt 0.5625 0.625
vt 0.625 0.5
vt 0.5 0.6875
vt 0.5625 0.5625
vt 0.5 0.625
vt 0.5625 0.5
vt 0.5625 0.5
vt 0.5 0.5
vt 0.5 0.5625
vt 0.5 0.5
vt 0.4375 0.5
vt 0.4375 0.5
vt 0.375 0.5
vt 0.4375 0.5625
vt 0.4375 0.625
vt 0.4375 0.6875
vt 0.375 0.5
vt 0.3125 0.5
vt 0.375 0.5625
vt 0.375 0.625
vt 0.3125 0.5
vt 0.25 0.5
vt 0.3125 0.5625
vt 0.4375 0.75
vt 0.375 0.6875
vt 0.3125 0.625
vt 0.4375 0.812011719
vt 0.375 0.75
vt 0.3125 0.6875
vt 0.4375 0.870605469
vt 0.375 0.812011719
vt 0.3125 0.75
vt 0.4375 0.916015625
vt 0.46875 0.9375
vt 0.4375 1
vt 0.40625 0.9375
vt 0.375 0.875
vt 0.3125 0.812011719
vt 0.3125 0.870605469
vt 0.3125 0.916015625
vt 0.34375 0.9375
vt 0.3125 1
vt 0.28125 0.9375
vt 0.25 0.875
vt 0.25 0.812011719
vt 0.25 0.75
vt 0.25 0.6875
vt 0.25 0.625
vt 0.25 0.5625
vt 0.25 0.5
vt 0.1875 0.870605469
vt 0.1875 0.812011719
vt 0.1875 0.75
vt 0.1875 0.6875
vt 0.1875 0.625
vt 0.1875 0.916015625
vt 0.21875 0.9375
vt 0.1875 1
vt 0.15625 0.9375
vt 0.125 0.875
vt 0.125 0.812011719
vt 0.125 0.75
vt 0.1875 0.5625
vt 0.125 0.6875
vt 0.125 0.625
vt 0.0625 0.870605469
vt 0.0625 0.812011719
vt 0.0625 0.75
vt 0.0625 0.916015625
vt 0.09375 0.9375
vt 0.0625 1
vt 0.03125 0.9375
vt 0 0.875
vt 0 0.8125
vt 0 0.75
vt 0.0625 0.6875
vt 0 0.6875
vt 0.0625 0.625
vt 0 0.625
vt 0.125 0.5625
vt 0.0625 0.5625
vt 0 0.5625
vt 0.1875 0.5
vt 0.125 0.5
vt 0.0625 0.5
vt 0 0.5
vt 0 0.5
vt 0.0625 0.5
vt 0.125 0.5
vt 0.1875 0.5
vt 0.1875 0.5
vt 0.1875 0.5
vt 0.25 0.5
vt 0.125 0.5
vt 0.3125 0.5
vt 0.125 0.5
vt 0.3125 0.5
vt 0.0625 0.5
vt 0.375 0.5
vt 0.0625 0.5
vt 0 0.5
vt 0 0.5
vt 0.375 0.5
vt 0.4375 0.5
vt 0.4375 0.5
vt 0.5 0.5
vt 0.5 0.5
vt 0.5625 0.5
vt 0.5625 0.5
vt 0.5625 0.5
vt 0.625 0.5
vt 1 0.5
vt 0.9375 0.5
vt 1 0.5
vt 0.9375 0.5
vt 0.875 0.5
vt 0.8125 0.5
vt 0.8125 0.5
vt 0.75 0.5
vt 0.75 0.5
vt 0.6875 0.5
vt 0.6875 0.5
vt 0.625 0.5
vt 0.625 0.5
vn -0.55078125 0.00538253784 0.834472656
vn -0.647949219 0.0275268555 0.761230469
vn -0.660644531 0.00926208496 0.750488281
vn -0.570800781 0.0182495117 0.821289062
vn -0.339599609 0.00244903564 0.940429688
vn -0.611328125 0.0445556641 0.790039062
vn -0.331054688 0.00938415527 0.943359375
vn -0.110229492 0.00175380707 0.994140625
vn -0.535644531 0.0335693359 0.84375
vn -0.567382812 0.0336303711 0.822753906
vn -0.0708618164 0.00861358643 0.997558594
vn 0.0257110596 0.00270271301 0.999511719
vn 0.0263671875 0.0121459961 0.999511719
vn -0.306640625 0.0184783936 0.951660156
vn -0.494628906 0.0263519287 0.868652344
vn -0.545898438 0.000598430634 0.837890625
vn -0.0643920898 0.0178070068 0.997558594
vn 0.022857666 0.0217590332 0.999511719
vn -0.280029297 0.0149383545 0.959960938
vn -0.475097656 -0.000113070011 0.879882812
vn -0.548828125 -0.0300140381 0.835449219
vn -0.0606689453 0.0149078369 0.998046875
vn 0.0158691406 0.0175628662 0.999511719
vn -0.484863281 -0.0274810791 0.874023438
vn -0.559082031 -0.0449829102 0.828125
vn -0.449951172 -0.0309143066 0.892578125
vn -0.270019531 -0.000760555267 0.962890625
vn -0.0626831055 0.000198245049 0.998046875
vn 0.00887298584 0.000973701477 1
vn -0.285888672 -0.0174560547 0.958007812
vn -0.299560547 -0.0236663818 0.953613281
vn -0.0760498047 -0.0151443481 0.997070312
vn -0.000513553619 -0.0148010254 1
vn -0.140869141 -0.018951416 0.989746094
vn -0.00868988037 -0.022064209 0.999511719
vn 0.55078125 -0.00538253784 0.834472656
vn 0.647949219 -0.0275268555 0.761230469
vn 0.660644531 -0.00926208496 0.750488281
vn 0.570800781 -0.0182495117 0.821289062
vn 0.339599609 -0.00244903564 0.940429688
vn 0.611328125 -0.0445251465 0.790039062
vn 0.331054688 -0.00938415527 0.943359375
vn 0.110229492 -0.00175380707 0.994140625
vn 0.535644531 -0.0335693359 0.84375
vn 0.567382812 -0.0336303711 0.822753906
vn 0.0708618164 -0.00861358643 0.997558594
vn -0.0257110596 -0.00270271301 0.999511719
vn -0.0263671875 -0.0121459961 0.999511719
vn 0.306640625 -0.0184783936 0.951660156
vn 0.494628906 -0.0263519287 0.868652344
vn 0.545898438 -0.000598430634 0.837890625
vn 0.0643920898 -0.0178070068 0.997558594
vn -0.022857666 -0.0217590332 0.999511719
vn 0.280029297 -0.0149383545 0.959960938
vn 0.475097656 0.000112950802 0.879882812
vn 0.548828125 0.0300140381 0.835449219
vn 0.0606689453 -0.0149078369 0.998046875
vn -0.0158691406 -0.0175628662 0.999511719
vn 0.484863281 0.0274810791 0.874023438
vn 0.559082031 0.0449829102 0.828125
vn 0.449951172 0.0309143066 0.892578125
vn 0.270019531 0.000760555267 0.962890625
vn 0.0626831055 -0.000198125839 0.998046875
vn -0.00887298584 -0.000973701477 1
vn 0.285888672 0.0174560547 0.958007812
vn 0.299560547 0.0236663818 0.953613281
vn 0.0760498047 0.0151443481 0.997070312
vn 0.000513076782 0.0148010254 1
vn 0.140869141 0.018951416 0.989746094
vn 0.00868988037 0.022064209 0.999511719
vn 0.999023438 1.07288361E-06 0.0434265137
vn 0.923828125 0.382568359 0.00866699219
vn 1 1.37090683E-06 0.00867462158
vn 0.922851562 0.382324219 0.0433654785
vn 0.70703125 0.70703125 0.00867462158
vn 0.706542969 0.706542969 0.0434265137
vn 0.913085938 0.378173828 0.153808594
vn 0.98828125 -4.17232513E-07 0.153930664
vn 0.698730469 0.698730469 0.153930664
vn 0.870605469 0.360595703 0.334228516
vn 0.942382812 -1.37090683E-06 0.334228516
vn 0.666503906 0.666503906 0.334228516
vn 0.793945312 0.328857422 0.51171875
vn 0.858886719 -7.15255737E-07 0.51171875
vn 0.607421875 0.607421875 0.51171875
vn 0.691894531 0.286621094 0.662597656
vn 0.748535156 1.07288361E-06 0.663085938
vn 0.529296875 0.529296875 0.663085938
vn 0.56640625 0.23449707 0.790039062
vn 0.61328125 -1.96695328E-06 0.790039062
vn 0.43359375 0.43359375 0.790039062
vn 0.416992188 0.172729492 0.892578125
vn 0.452636719 2.38418579E-07 0.891601562
vn 0.320068359 0.320068359 0.891601562
vn 0.255859375 0.106018066 0.9609375
vn 0.224853516 1.96695328E-06 0.974609375
vn -3.57627869E-07 -1.1920929E-06 1
vn 0.158935547 0.158935547 0.974609375
vn 0.286621094 0.691894531 0.662597656
vn 0.23449707 0.56640625 0.790039062
vn 0.172729492 0.416992188 0.892578125
vn 0.106018066 0.255859375 0.9609375
vn 0.158935547 0.158935547 0.974609375
vn -3.57627869E-07 -1.1920929E-06 1
vn -0 0.224853516 0.974609375
vn -3.57627869E-07 0.452636719 0.891601562
vn 0.328857422 0.793945312 0.51171875
vn -1.07288361E-06 0.61328125 0.790039062
vn 0.360595703 0.870605469 0.334228516
vn -8.34465027E-07 0.748535156 0.663085938
vn 0.378173828 0.913085938 0.153808594
vn 1.01327896E-06 0.858886719 0.51171875
vn 2.32458115E-06 0.942382812 0.334228516
vn -0.172729492 0.416992188 0.892578125
vn -0.23449707 0.56640625 0.790039062
vn -0.286621094 0.691894531 0.662597656
vn -0.106018066 0.255859375 0.9609375
vn -0 0.224853516 0.974609375
vn -3.57627869E-07 -1.1920929E-06 1
vn -0.158935547 0.158935547 0.974609375
vn -0.320068359 0.320068359 0.891601562
vn -0.328857422 0.793945312 0.51171875
vn -0.43359375 0.43359375 0.790039062
vn -0.529296875 0.529296875 0.663085938
vn -0.360595703 0.870605469 0.334228516
vn -0.607421875 0.607421875 0.51171875
vn -0 0.98828125 0.153930664
vn 0.382324219 0.922851562 0.0433654785
vn 0.382568359 0.923828125 0.00866699219
vn 0.70703125 0.70703125 0.00867462158
vn -0.416992188 0.172729492 0.892578125
vn -0.56640625 0.23449707 0.790039062
vn -0.255859375 0.106018066 0.9609375
vn -0.158935547 0.158935547 0.974609375
vn -3.57627869E-07 -1.1920929E-06 1
vn -0.224853516 -2.98023224E-07 0.974609375
vn -0.452636719 -2.32458115E-06 0.891601562
vn -0.691894531 0.286621094 0.662597656
vn -0.61328125 -3.4570694E-06 0.790039062
vn -0.793945312 0.328857422 0.51171875
vn -0.748535156 -1.84774399E-06 0.663085938
vn -0.666503906 0.666503906 0.334228516
vn -0.378173828 0.913085938 0.153808594
vn -2.98023224E-07 0.999023438 0.0434265137
vn -9.53674316E-07 1 0.00867462158
vn 0.382568359 0.923828125 0.00866699219
vn -0.382568359 0.923828125 0.00866699219
vn -0.382324219 0.922851562 0.0433654785
vn -0.70703125 0.70703125 0.00867462158
vn -0.698730469 0.698730469 0.153930664
vn -0.870605469 0.360595703 0.334228516
vn -0.706542969 0.706542969 0.0434265137
vn -0.858886719 -5.36441803E-07 0.51171875
vn -0.913085938 0.378173828 0.153808594
vn -0.942382812 -7.15255737E-07 0.334228516
vn -0.923828125 0.382568359 0.00866699219
vn -0.922851562 0.382324219 0.0433654785
vn -1 -8.94069672E-07 0.00867462158
vn -0.98828125 -1.07288361E-06 0.153930664
vn -0.999023438 -4.17232513E-07 0.0434265137
vn -0.923828125 -0.382568359 0.00866699219
vn -0.922851562 -0.382324219 0.0433654785
vn -0.70703125 -0.70703125 0.00867462158
vn -0.913085938 -0.378173828 0.153808594
vn -0.870605469 -0.360595703 0.334228516
vn -0.793945312 -0.328857422 0.51171875
vn -0.706542969 -0.706542969 0.0434265137
vn -0.382568359 -0.923828125 0.00866699219
vn -0.698730469 -0.698730469 0.153930664
vn -0.666503906 -0.666503906 0.334228516
vn -0.382324219 -0.922851562 0.0433654785
vn 1.37090683E-06 -1 0.00867462158
vn -0.378173828 -0.913085938 0.153808594
vn -0.691894531 -0.286621094 0.662597656
vn -0.607421875 -0.607421875 0.51171875
vn -0.360595703 -0.870605469 0.334228516
vn -0.56640625 -0.23449707 0.790039062
vn -0.529296875 -0.529296875 0.663085938
vn -0.328857422 -0.793945312 0.51171875
vn -0.416992188 -0.172729492 0.892578125
vn -0.43359375 -0.43359375 0.790039062
vn -0.286621094 -0.691894531 0.662597656
vn -0.255859375 -0.105957031 0.9609375
vn -0.224853516 -2.98023224E-07 0.974609375
vn -3.57627869E-07 -1.1920929E-06 1
vn -0.158935547 -0.158935547 0.974609375
vn -0.320068359 -0.320068359 0.891601562
vn -0.23449707 -0.56640625 0.790039062
vn -0.172729492 -0.416992188 0.892578125
vn -0.105957031 -0.255859375 0.9609375
vn -0.158935547 -0.158935547 0.974609375
vn -3.57627869E-07 -1.1920929E-06 1
vn -7.74860382E-07 -0.224853516 0.974609375
vn 9.53674316E-07 -0.452636719 0.891601562
vn -7.15255737E-07 -0.61328125 0.790039062
vn -5.36441803E-07 -0.748535156 0.663085938
vn -3.57627869E-07 -0.858886719 0.51171875
vn 1.84774399E-06 -0.942382812 0.334228516
vn 2.8014183E-06 -0.98828125 0.153930664
vn 2.02655792E-06 -0.999023438 0.0434265137
vn 0.172729492 -0.416992188 0.892578125
vn 0.23449707 -0.56640625 0.790039062
vn 0.286621094 -0.691894531 0.662597656
vn 0.328857422 -0.793945312 0.51171875
vn 0.360595703 -0.870605469 0.334228516
vn 0.105957031 -0.255859375 0.9609375
vn -7.74860382E-07 -0.224853516 0.974609375
vn -3.57627869E-07 -1.1920929E-06 1
vn 0.158935547 -0.158935547 0.974609375
vn 0.320068359 -0.320068359 0.891601562
vn 0.43359375 -0.43359375 0.790039062
vn 0.529296875 -0.529296875 0.663085938
vn 0.378173828 -0.913085938 0.153808594
vn 0.607421875 -0.607421875 0.51171875
vn 0.666503906 -0.666503906 0.334228516
vn 0.416992188 -0.172729492 0.892578125
vn 0.56640625 -0.23449707 0.790039062
vn 0.691894531 -0.286621094 0.662597656
vn 0.255859375 -0.106018066 0.9609375
vn 0.158935547 -0.158935547 0.974609375
vn -3.57627869E-07 -1.1920929E-06 1
vn 0.224853516 1.96695328E-06 0.974609375
vn 0.452636719 2.38418579E-07 0.891601562
vn 0.61328125 -1.96695328E-06 0.790039062
vn 0.748535156 1.07288361E-06 0.663085938
vn 0.793945312 -0.328857422 0.51171875
vn 0.858886719 -7.15255737E-07 0.51171875
vn 0.870605469 -0.360595703 0.334228516
vn 0.942382812 -1.37090683E-06 0.334228516
vn 0.698730469 -0.698730469 0.153930664
vn 0.913085938 -0.378173828 0.153808594
vn 0.98828125 -4.17232513E-07 0.153930664
vn 0.382324219 -0.922851562 0.0433654785
vn 0.706542969 -0.706542969 0.0434265137
vn 0.922851562 -0.382324219 0.0433654785
vn 0.999023438 1.07288361E-06 0.0434265137
vn 1 1.37090683E-06 0.00867462158
vn 0.923828125 -0.382568359 0.00866699219
vn 0.70703125 -0.70703125 0.00867462158
vn 0.382568359 -0.923828125 0.00866699219
vn 0.382568359 -0.923828125 0.00866699219
vn 0.382568359 -0.923828125 0.00178432465
vn 8.34465027E-07 -1 0.00178527832
vn 0.70703125 -0.70703125 0.00178527832
vn -0.382568359 -0.923828125 0.00866699219
vn 0.70703125 -0.70703125 0.00867462158
vn -0.382568359 -0.923828125 0.0017824173
vn 0.923828125 -0.382568359 0.00178050995
vn -0.70703125 -0.70703125 0.00867462158
vn 0.923828125 -0.382568359 0.00866699219
vn 1 1.78813934E-07 0.00178050995
vn 1 1.37090683E-06 0.00867462158
vn -0.70703125 -0.70703125 0.00178527832
vn -0.923828125 -0.382568359 0.00866699219
vn -0.923828125 -0.382568359 0.00178337097
vn -1 -8.94069672E-07 0.00867462158
vn -1 -2.08616257E-06 0.00178527832
vn -0.923828125 0.382568359 0.00866699219
vn -0.923828125 0.382568359 0.0017824173
vn -0.923828125 0.382568359 0.00866699219
vn -0.70703125 0.70703125 0.00178337097
vn 1 1.37090683E-06 0.00867462158
vn 0.923828125 0.382568359 0.00177955627
vn 1 1.78813934E-07 0.00178050995
vn 0.923828125 0.382568359 0.00866699219
vn 0.70703125 0.70703125 0.00178337097
vn 0.382568359 0.923828125 0.00178146362
vn 0.382568359 0.923828125 0.00866699219
vn -1.96695328E-06 1 0.00178432465
vn -9.53674316E-07 1 0.00867462158
vn -0.382568359 0.923828125 0.00178146362
vn -0.382568359 0.923828125 0.00866699219
vn -0.70703125 0.70703125 0.00178337097
vn -0.70703125 0.70703125 0.00867462158
g Propeller1_0
f 3/3/3 2/2/2 1/1/1
f 2/2/2 4/4/4 1/1/1
f 1/1/1 4/4/4 5/5/5
f 2/2/2 6/6/6 4/4/4
f 4/4/4 7/7/7 5/5/5
f 5/5/5 7/7/7 8/8/8
f 6/6/6 9/9/9 4/4/4
f 4/4/4 9/9/9 7/7/7
f 6/6/6 10/10/10 9/9/9
f 7/7/7 11/11/11 8/8/8
f 8/8/8 11/11/11 12/12/12
f 11/11/11 13/13/13 12/12/12
f 9/9/9 14/14/14 7/7/7
f 7/7/7 14/14/14 11/11/11
f 10/10/10 15/15/15 9/9/9
f 9/9/9 15/15/15 14/14/14
f 10/10/10 16/16/16 15/15/15
f 11/11/11 17/17/17 13/13/13
f 14/14/14 17/17/17 11/11/11
f 17/17/17 18/18/18 13/13/13
f 15/15/15 19/19/19 14/14/14
f 14/14/14 19/19/19 17/17/17
f 16/16/16 20/20/20 15/15/15
f 15/15/15 20/20/20 19/19/19
f 16/16/16 21/21/21 20/20/20
f 17/17/17 22/22/22 18/18/18
f 19/19/19 22/22/22 17/17/17
f 22/22/22 23/23/23 18/18/18
f 21/21/21 24/24/24 20/20/20
f 21/21/21 25/25/25 24/24/24
f 25/25/25 26/26/26 24/24/24
f 20/20/20 27/27/27 19/19/19
f 19/19/19 27/27/27 22/22/22
f 20/20/20 24/24/24 27/27/27
f 22/22/22 28/28/28 23/23/23
f 27/27/27 28/28/28 22/22/22
f 28/28/28 29/29/29 23/23/23
f 24/24/24 26/26/26 30/30/30
f 24/24/24 30/30/30 27/27/27
f 27/27/27 30/30/30 28/28/28
f 26/26/26 31/31/31 30/30/30
f 28/28/28 32/32/32 29/29/29
f 30/30/30 32/32/32 28/28/28
f 30/30/30 31/31/31 32/32/32
f 32/32/32 33/33/33 29/29/29
f 31/31/31 34/34/34 32/32/32
f 32/32/32 34/34/34 33/33/33
f 34/34/34 35/35/35 33/33/33
f 38/38/38 37/37/37 36/36/36
f 37/37/37 39/39/39 36/36/36
f 36/36/36 39/39/39 40/40/40
f 37/37/37 41/41/41 39/39/39
f 39/39/39 42/42/42 40/40/40
f 40/40/40 42/42/42 43/43/43
f 41/41/41 44/44/44 39/39/39
f 39/39/39 44/44/44 42/42/42
f 41/41/41 45/45/45 44/44/44
f 42/42/42 46/46/46 43/43/43
f 43/43/43 46/46/46 47/47/47
f 46/46/46 48/48/48 47/47/47
f 44/44/44 49/49/49 42/42/42
f 42/42/42 49/49/49 46/46/46
f 45/45/45 50/50/50 44/44/44
f 44/44/44 50/50/50 49/49/49
f 45/45/45 51/51/51 50/50/50
f 46/46/46 52/52/52 48/48/48
f 49/49/49 52/52/52 46/46/46
f 52/52/52 53/53/53 48/48/48
f 50/50/50 54/54/54 49/49/49
f 49/49/49 54/54/54 52/52/52
f 51/51/51 55/55/55 50/50/50
f 50/50/50 55/55/55 54/54/54
f 51/51/51 56/56/56 55/55/55
f 52/52/52 57/57/57 53/53/53
f 54/54/54 57/57/57 52/52/52
f 57/57/57 58/58/58 53/53/53
f 56/56/56 59/59/59 55/55/55
f 56/56/56 60/60/60 59/59/59
f 60/60/60 61/61/61 59/59/59
f 55/55/55 62/62/62 54/54/54
f 54/54/54 62/62/62 57/57/57
f 55/55/55 59/59/59 62/62/62
f 57/57/57 63/63/63 58/58/58
f 62/62/62 63/63/63 57/57/57
f 63/63/63 64/64/64 58/58/58
f 59/59/59 61/61/61 65/65/65
f 59/59/59 65/65/65 62/62/62
f 62/62/62 65/65/65 63/63/63
f 61/61/61 66/66/66 65/65/65
f 63/63/63 67/67/67 64/64/64
f 65/65/65 67/67/67 63/63/63
f 65/65/65 66/66/66 67/67/67
f 67/67/67 68/68/68 64/64/64
f 66/66/66 69/69/69 67/67/67
f 67/67/67 69/69/69 68/68/68
f 69/69/69 70/70/70 68/68/68
f 73/73/73 72/72/72 71/71/71
f 72/72/72 74/74/74 71/71/71
f 72/72/72 75/75/75 74/74/74
f 75/75/75 76/76/76 74/74/74
f 74/74/74 77/77/77 71/71/71
f 77/77/77 78/78/78 71/71/71
f 76/76/76 79/79/79 74/74/74
f 79/79/79 77/77/77 74/74/74
f 77/77/77 80/80/80 78/78/78
f 80/80/80 81/81/81 78/78/78
f 79/79/79 82/82/82 77/77/77
f 82/82/82 80/80/80 77/77/77
f 80/80/80 83/83/83 81/81/81
f 83/83/83 84/84/84 81/81/81
f 82/82/82 85/85/85 80/80/80
f 85/85/85 83/83/83 80/80/80
f 83/83/83 86/86/86 84/84/84
f 86/86/86 87/87/87 84/84/84
f 85/85/85 88/88/88 83/83/83
f 88/88/88 86/86/86 83/83/83
f 86/86/86 89/89/89 87/87/87
f 89/89/89 90/90/90 87/87/87
f 88/88/88 91/91/91 86/86/86
f 91/91/91 89/89/89 86/86/86
f 89/89/89 92/92/92 90/90/90
f 92/92/92 93/93/93 90/90/90
f 94/94/94 92/92/92 89/89/89
f 91/91/91 94/94/94 89/89/89
f 92/92/92 95/95/95 93/93/93
f 95/95/95 92/92/92 94/94/94
f 95/95/95 96/96/96 93/93/93
f 96/96/96 95/95/95 97/97/97
f 95/95/95 98/98/98 97/97/97
f 98/98/98 95/95/95 94/94/94
f 99/99/99 88/88/88 85/85/85
f 100/100/100 91/91/91 88/88/88
f 99/99/99 100/100/100 88/88/88
f 101/101/101 94/94/94 91/91/91
f 100/100/100 101/101/101 91/91/91
f 101/101/101 102/102/102 94/94/94
f 102/102/102 103/103/103 94/94/94
f 103/103/103 102/102/102 104/104/104
f 102/102/102 105/105/105 104/104/104
f 105/105/105 102/102/102 106/106/106
f 102/102/102 101/101/101 106/106/106
f 106/106/106 101/101/101 100/100/100
f 107/107/107 99/99/99 85/85/85
f 107/107/107 85/85/85 82/82/82
f 108/108/108 100/100/100 99/99/99
f 108/108/108 106/106/106 100/100/100
f 109/109/109 107/107/107 82/82/82
f 109/109/109 82/82/82 79/79/79
f 110/110/110 99/99/99 107/107/107
f 110/110/110 108/108/108 99/99/99
f 111/111/111 109/109/109 79/79/79
f 111/111/111 79/79/79 76/76/76
f 112/112/112 107/107/107 109/109/109
f 112/112/112 110/110/110 107/107/107
f 113/113/113 109/109/109 111/111/111
f 113/113/113 112/112/112 109/109/109
f 114/114/114 106/106/106 108/108/108
f 115/115/115 108/108/108 110/110/110
f 115/115/115 114/114/114 108/108/108
f 116/116/116 110/110/110 112/112/112
f 116/116/116 115/115/115 110/110/110
f 114/114/114 117/117/117 106/106/106
f 117/117/117 118/118/118 106/106/106
f 118/118/118 117/117/117 119/119/119
f 117/117/117 120/120/120 119/119/119
f 120/120/120 117/117/117 121/121/121
f 117/117/117 114/114/114 121/121/121
f 121/121/121 114/114/114 115/115/115
f 122/122/122 112/112/112 113/113/113
f 122/122/122 116/116/116 112/112/112
f 123/123/123 115/115/115 116/116/116
f 123/123/123 121/121/121 115/115/115
f 124/124/124 116/116/116 122/122/122
f 124/124/124 123/123/123 116/116/116
f 125/125/125 122/122/122 113/113/113
f 126/126/126 124/124/124 122/122/122
f 126/126/126 122/122/122 125/125/125
f 125/125/125 113/113/113 127/127/127
f 127/127/127 113/113/113 111/111/111
f 127/127/127 111/111/111 128/128/128
f 128/128/128 111/111/111 76/76/76
f 129/129/129 128/128/128 76/76/76
f 130/130/130 129/129/129 76/76/76
f 131/131/131 121/121/121 123/123/123
f 132/132/132 123/123/123 124/124/124
f 132/132/132 131/131/131 123/123/123
f 131/131/131 133/133/133 121/121/121
f 133/133/133 134/134/134 121/121/121
f 134/134/134 133/133/133 135/135/135
f 133/133/133 136/136/136 135/135/135
f 136/136/136 133/133/133 137/137/137
f 133/133/133 131/131/131 137/137/137
f 137/137/137 131/131/131 132/132/132
f 138/138/138 132/132/132 124/124/124
f 138/138/138 124/124/124 126/126/126
f 139/139/139 137/137/137 132/132/132
f 139/139/139 132/132/132 138/138/138
f 140/140/140 138/138/138 126/126/126
f 141/141/141 139/139/139 138/138/138
f 141/141/141 138/138/138 140/140/140
f 140/140/140 126/126/126 142/142/142
f 142/142/142 126/126/126 125/125/125
f 142/142/142 125/125/125 143/143/143
f 143/143/143 125/125/125 127/127/127
f 143/143/143 127/127/127 144/144/144
f 144/144/144 127/127/127 128/128/128
f 145/145/145 144/144/144 128/128/128
f 146/146/146 145/145/145 128/128/128
f 145/145/145 147/147/147 144/144/144
f 147/147/147 148/148/148 144/144/144
f 148/148/148 143/143/143 144/144/144
f 147/147/147 149/149/149 148/148/148
f 150/150/150 142/142/142 143/143/143
f 150/150/150 143/143/143 148/148/148
f 151/151/151 140/140/140 142/142/142
f 151/151/151 142/142/142 150/150/150
f 152/152/152 150/150/150 148/148/148
f 149/149/149 152/152/152 148/148/148
f 153/153/153 140/140/140 151/151/151
f 153/153/153 141/141/141 140/140/140
f 154/154/154 151/151/151 150/150/150
f 154/154/154 150/150/150 152/152/152
f 155/155/155 153/153/153 151/151/151
f 155/155/155 151/151/151 154/154/154
f 149/149/149 156/156/156 152/152/152
f 156/156/156 157/157/157 152/152/152
f 157/157/157 154/154/154 152/152/152
f 156/156/156 158/158/158 157/157/157
f 159/159/159 154/154/154 157/157/157
f 159/159/159 155/155/155 154/154/154
f 158/158/158 160/160/160 157/157/157
f 160/160/160 159/159/159 157/157/157
f 158/158/158 161/161/161 160/160/160
f 161/161/161 162/162/162 160/160/160
f 161/161/161 163/163/163 162/162/162
f 164/164/164 159/159/159 160/160/160
f 162/162/162 164/164/164 160/160/160
f 165/165/165 155/155/155 159/159/159
f 164/164/164 165/165/165 159/159/159
f 166/166/166 153/153/153 155/155/155
f 165/165/165 166/166/166 155/155/155
f 163/163/163 167/167/167 162/162/162
f 163/163/163 168/168/168 167/167/167
f 169/169/169 164/164/164 162/162/162
f 167/167/167 169/169/169 162/162/162
f 170/170/170 165/165/165 164/164/164
f 169/169/169 170/170/170 164/164/164
f 168/168/168 171/171/171 167/167/167
f 168/168/168 172/172/172 171/171/171
f 173/173/173 169/169/169 167/167/167
f 171/171/171 173/173/173 167/167/167
f 166/166/166 174/174/174 153/153/153
f 174/174/174 141/141/141 153/153/153
f 175/175/175 166/166/166 165/165/165
f 170/170/170 175/175/175 165/165/165
f 176/176/176 170/170/170 169/169/169
f 173/173/173 176/176/176 169/169/169
f 174/174/174 177/177/177 141/141/141
f 177/177/177 139/139/139 141/141/141
f 178/178/178 174/174/174 166/166/166
f 175/175/175 178/178/178 166/166/166
f 179/179/179 175/175/175 170/170/170
f 176/176/176 179/179/179 170/170/170
f 177/177/177 180/180/180 139/139/139
f 180/180/180 137/137/137 139/139/139
f 181/181/181 177/177/177 174/174/174
f 178/178/178 181/181/181 174/174/174
f 182/182/182 178/178/178 175/175/175
f 179/179/179 182/182/182 175/175/175
f 180/180/180 183/183/183 137/137/137
f 183/183/183 184/184/184 137/137/137
f 184/184/184 183/183/183 185/185/185
f 183/183/183 186/186/186 185/185/185
f 186/186/186 183/183/183 187/187/187
f 183/183/183 180/180/180 187/187/187
f 187/187/187 180/180/180 177/177/177
f 181/181/181 187/187/187 177/177/177
f 188/188/188 181/181/181 178/178/178
f 182/182/182 188/188/188 178/178/178
f 189/189/189 187/187/187 181/181/181
f 188/188/188 189/189/189 181/181/181
f 189/189/189 190/190/190 187/187/187
f 190/190/190 191/191/191 187/187/187
f 191/191/191 190/190/190 192/192/192
f 190/190/190 193/193/193 192/192/192
f 193/193/193 190/190/190 194/194/194
f 190/190/190 189/189/189 194/194/194
f 194/194/194 189/189/189 188/188/188
f 195/195/195 188/188/188 182/182/182
f 195/195/195 194/194/194 188/188/188
f 196/196/196 195/195/195 182/182/182
f 196/196/196 182/182/182 179/179/179
f 197/197/197 196/196/196 179/179/179
f 197/197/197 179/179/179 176/176/176
f 198/198/198 197/197/197 176/176/176
f 198/198/198 176/176/176 173/173/173
f 199/199/199 198/198/198 173/173/173
f 199/199/199 173/173/173 171/171/171
f 200/200/200 199/199/199 171/171/171
f 172/172/172 200/200/200 171/171/171
f 201/201/201 194/194/194 195/195/195
f 202/202/202 195/195/195 196/196/196
f 202/202/202 201/201/201 195/195/195
f 203/203/203 196/196/196 197/197/197
f 203/203/203 202/202/202 196/196/196
f 204/204/204 197/197/197 198/198/198
f 204/204/204 203/203/203 197/197/197
f 205/205/205 198/198/198 199/199/199
f 205/205/205 204/204/204 198/198/198
f 201/201/201 206/206/206 194/194/194
f 206/206/206 207/207/207 194/194/194
f 207/207/207 206/206/206 208/208/208
f 206/206/206 209/209/209 208/208/208
f 209/209/209 206/206/206 210/210/210
f 206/206/206 201/201/201 210/210/210
f 210/210/210 201/201/201 202/202/202
f 211/211/211 202/202/202 203/203/203
f 211/211/211 210/210/210 202/202/202
f 212/212/212 203/203/203 204/204/204
f 212/212/212 211/211/211 203/203/203
f 213/213/213 205/205/205 199/199/199
f 213/213/213 199/199/199 200/200/200
f 214/214/214 204/204/204 205/205/205
f 214/214/214 212/212/212 204/204/204
f 215/215/215 205/205/205 213/213/213
f 215/215/215 214/214/214 205/205/205
f 216/216/216 210/210/210 211/211/211
f 217/217/217 211/211/211 212/212/212
f 217/217/217 216/216/216 211/211/211
f 218/218/218 212/212/212 214/214/214
f 218/218/218 217/217/217 212/212/212
f 216/216/216 219/219/219 210/210/210
f 219/219/219 220/220/220 210/210/210
f 220/220/220 219/219/219 221/221/221
f 219/219/219 222/222/222 221/221/221
f 222/222/222 219/219/219 223/223/223
f 219/219/219 216/216/216 223/223/223
f 223/223/223 216/216/216 217/217/217
f 224/224/224 223/223/223 217/217/217
f 224/224/224 217/217/217 218/218/218
f 225/225/225 224/224/224 218/218/218
f 226/226/226 218/218/218 214/214/214
f 225/225/225 218/218/218 226/226/226
f 226/226/226 214/214/214 215/215/215
f 227/227/227 225/225/225 226/226/226
f 227/227/227 226/226/226 228/228/228
f 228/228/228 226/226/226 215/215/215
f 229/229/229 227/227/227 228/228/228
f 228/228/228 215/215/215 230/230/230
f 230/230/230 215/215/215 213/213/213
f 229/229/229 228/228/228 231/231/231
f 231/231/231 228/228/228 230/230/230
f 232/232/232 229/229/229 231/231/231
f 230/230/230 213/213/213 233/233/233
f 233/233/233 213/213/213 200/200/200
f 231/231/231 230/230/230 234/234/234
f 234/234/234 230/230/230 233/233/233
f 232/232/232 231/231/231 235/235/235
f 235/235/235 231/231/231 234/234/234
f 236/236/236 232/232/232 235/235/235
f 237/237/237 236/236/236 235/235/235
f 238/238/238 237/237/237 235/235/235
f 238/238/238 235/235/235 234/234/234
f 239/239/239 238/238/238 234/234/234
f 239/239/239 234/234/234 233/233/233
f 240/240/240 239/239/239 233/233/233
f 240/240/240 233/233/233 200/200/200
f 172/172/172 240/240/240 200/200/200
f 242/242/242 241/241/241 172/172/172
f 243/243/243 242/242/242 172/172/172
f 242/242/242 244/244/244 241/241/241
f 243/243/243 172/172/172 245/245/245
f 244/244/244 246/246/246 241/241/241
f 247/247/247 243/243/243 245/245/245
f 244/244/244 248/248/248 246/246/246
f 247/247/247 245/245/245 249/249/249
f 248/248/248 250/250/250 246/246/246
f 248/248/248 251/251/251 250/250/250
f 251/251/251 252/252/252 250/250/250
f 253/253/253 247/247/247 249/249/249
f 253/253/253 249/249/249 254/254/254
f 255/255/255 253/253/253 254/254/254
f 255/255/255 254/254/254 256/256/256
f 257/257/257 255/255/255 256/256/256
f 257/257/257 256/256/256 258/258/258
f 259/259/259 257/257/257 258/258/258
f 259/259/259 260/260/260 149/149/149
f 261/261/261 259/259/259 149/149/149
f 264/264/264 263/263/263 262/262/262
f 263/263/263 265/265/265 262/262/262
f 263/263/263 266/266/266 265/265/265
f 266/266/266 130/130/130 265/265/265
f 266/266/266 267/267/267 130/130/130
f 267/267/267 268/268/268 130/130/130
f 267/267/267 269/269/269 268/268/268
f 269/269/269 270/270/270 268/268/268
f 269/269/269 271/271/271 270/270/270
f 271/271/271 272/272/272 270/270/270
f 271/271/271 273/273/273 272/272/272
f 273/273/273 274/274/274 272/272/272
