g Propeller4
v -1.80019524E-05 2.32511624E-07 -5.26330587E-06
v -1.67776052E-05 -6.85154873E-06 -1.84891942E-05
v -1.8208073E-05 2.32479792E-07 -1.84891942E-05
v -1.65874317E-05 -6.7727924E-06 -5.26330723E-06
v -1.27798949E-05 -1.28722431E-05 -1.84891942E-05
v -1.26341611E-05 -1.27266057E-05 -5.26330587E-06
v -1.60754535E-05 -6.56074963E-06 2.47299863E-06
v -1.74471897E-05 2.32511624E-07 2.47299749E-06
v -1.22418451E-05 -1.23342261E-05 2.47299863E-06
v -1.50993437E-05 -6.15636918E-06 6.78072684E-06
v -1.63894274E-05 2.32511624E-07 6.78072684E-06
v -1.14939176E-05 -1.15862349E-05 6.78072502E-06
v -1.35556438E-05 -5.51696212E-06 1.02461818E-05
v -1.47166102E-05 2.32511624E-07 1.02461781E-05
v -1.03110506E-05 -1.04033988E-05 1.0246179E-05
v -1.14802615E-05 -4.65733137E-06 1.32850237E-05
v -1.24676399E-05 2.32479792E-07 1.32850237E-05
v -8.72080909E-06 -8.81319011E-06 1.32850237E-05
v -8.98751023E-06 -3.62481296E-06 1.57682134E-05
v -9.75654257E-06 2.32543456E-07 1.57700269E-05
v -6.80382982E-06 -6.89617855E-06 1.57700269E-05
v -6.36599225E-06 -2.53890994E-06 1.75585592E-05
v -6.84728229E-06 2.32543456E-07 1.75730565E-05
v -4.74656053E-06 -4.83897293E-06 1.75730565E-05
v -4.21631057E-06 -1.64852781E-06 1.8474122E-05
v -3.89842171E-06 2.32511624E-07 1.86256893E-05
v 3.24924173E-07 2.32543456E-07 1.91170238E-05
v -2.66143661E-06 -2.75384923E-06 1.86256893E-05
v -4.56498219E-06 -1.15726416E-05 1.32850237E-05
v -3.53246401E-06 -9.07992307E-06 1.57682134E-05
v -2.44656076E-06 -6.45837326E-06 1.75585592E-05
v -1.55614703E-06 -4.30869113E-06 1.84741257E-05
v -2.66143661E-06 -2.75384923E-06 1.86256893E-05
v 3.24924173E-07 2.32543456E-07 1.91170238E-05
v 3.24892341E-07 -3.99089777E-06 1.86256912E-05
v 3.24860508E-07 -6.93963148E-06 1.75730565E-05
v -5.42458156E-06 -1.3647993E-05 1.02461818E-05
v 3.24892341E-07 -9.84898725E-06 1.57700269E-05
v -6.06402045E-06 -1.51916611E-05 6.78072502E-06
v 3.24924173E-07 -1.25600209E-05 1.32850237E-05
v -6.46833723E-06 -1.61678672E-05 2.47299863E-06
v 3.24892341E-07 -1.48089912E-05 1.02461836E-05
v 3.24860508E-07 -1.64817757E-05 6.78072502E-06
v 3.09631378E-06 -6.45837326E-06 1.75585592E-05
v 4.18218497E-06 -9.07989124E-06 1.57682134E-05
v 5.21473521E-06 -1.15726734E-05 1.32850237E-05
v 2.20593188E-06 -4.30869113E-06 1.84741275E-05
v 3.24892341E-07 -3.99089777E-06 1.86256912E-05
v 3.24924173E-07 2.32543456E-07 1.91170238E-05
v 3.31128513E-06 -2.7538174E-06 1.86256912E-05
v 5.39634539E-06 -4.83894109E-06 1.75730565E-05
v 6.07439779E-06 -1.3647993E-05 1.02461818E-05
v 7.45358284E-06 -6.89617855E-06 1.57700269E-05
v 9.37059394E-06 -8.81322194E-06 1.32850237E-05
v 6.71377347E-06 -1.51916929E-05 6.78072502E-06
v 1.09608027E-05 -1.04033988E-05 1.02461836E-05
v 3.24892341E-07 -1.7539538E-05 2.47299863E-06
v -6.68044368E-06 -1.66798436E-05 -5.26330678E-06
v -6.7591991E-06 -1.68699844E-05 -1.84891942E-05
v -1.27798949E-05 -1.28722431E-05 -1.84891942E-05
v 7.01577756E-06 -2.53894154E-06 1.75585592E-05
v 9.637326E-06 -3.62481296E-06 1.57682134E-05
v 4.8661268E-06 -1.64852781E-06 1.84741257E-05
v 3.31128513E-06 -2.7538174E-06 1.86256912E-05
v 3.24924173E-07 2.32543456E-07 1.91170238E-05
v 4.54826977E-06 2.32511624E-07 1.86256893E-05
v 7.49700348E-06 2.32543456E-07 1.75730565E-05
v 1.21300782E-05 -4.65733137E-06 1.32850237E-05
v 1.04064238E-05 2.32543456E-07 1.57700269E-05
v 1.42053968E-05 -5.51699395E-06 1.02461818E-05
v 1.31174247E-05 2.32511624E-07 1.32850219E-05
v 1.21436706E-05 -1.15862676E-05 6.78072502E-06
v 7.11812163E-06 -1.61678672E-05 2.47299863E-06
v 3.24892341E-07 -1.80943625E-05 -5.26330587E-06
v 3.24892341E-07 -1.8300454E-05 -1.84891942E-05
v -6.7591991E-06 -1.68699844E-05 -1.84891942E-05
v 7.40895211E-06 -1.68699844E-05 -1.84891924E-05
v 7.33019669E-06 -1.66798436E-05 -5.26330587E-06
v 1.34296797E-05 -1.2872275E-05 -1.84891942E-05
v 1.28916299E-05 -1.23342261E-05 2.47299863E-06
v 1.57490977E-05 -6.15643285E-06 6.78072911E-06
v 1.3283945E-05 -1.2726573E-05 -5.26330541E-06
v 1.53663641E-05 2.32479792E-07 1.02461836E-05
v 1.67252056E-05 -6.56074963E-06 2.47299863E-06
v 1.70391795E-05 2.32479792E-07 6.78072502E-06
v 1.742739E-05 -6.85158011E-06 -1.84891942E-05
v 1.72372165E-05 -6.7727924E-06 -5.26330587E-06
v 1.88578251E-05 2.32479792E-07 -1.84891942E-05
v 1.80969109E-05 2.32511624E-07 2.47299863E-06
v 1.86517373E-05 2.32511624E-07 -5.26330541E-06
v 1.74273573E-05 7.31660339E-06 -1.84891942E-05
v 1.72372165E-05 7.23784706E-06 -5.26330587E-06
v 1.34296797E-05 1.3337235E-05 -1.84891942E-05
v 1.67252056E-05 7.02574062E-06 2.47299863E-06
v 1.57490649E-05 6.62139246E-06 6.78072684E-06
v 1.42053968E-05 5.9819854E-06 1.02461818E-05
v 1.32839778E-05 1.31915331E-05 -5.26330541E-06
v 7.40898395E-06 1.7335009E-05 -1.84891942E-05
v 1.28916299E-05 1.27993126E-05 2.47299863E-06
v 1.21436706E-05 1.20512905E-05 6.78072502E-06
v 7.33019669E-06 1.71448664E-05 -5.26330587E-06
v 3.24892341E-07 1.87654769E-05 -1.84891942E-05
v 7.11815346E-06 1.663289E-05 2.47299863E-06
v 3.24892341E-07 1.85594508E-05 -5.26330541E-06
v -6.7591991E-06 1.73349435E-05 -1.84891942E-05
v 1.21300454E-05 5.1223542E-06 1.32850237E-05
v 1.09608027E-05 1.08684535E-05 1.02461836E-05
v 6.71380485E-06 1.56566512E-05 6.78072502E-06
v 3.24860508E-07 1.80045936E-05 2.47299863E-06
v -6.68044368E-06 1.71448664E-05 -5.26330587E-06
v -1.27798949E-05 1.33372669E-05 -1.84891942E-05
v 9.63729508E-06 4.08983624E-06 1.57682134E-05
v 6.07439779E-06 1.41130167E-05 1.02461818E-05
v 3.24860508E-07 1.69467985E-05 6.78072502E-06
v -6.46833723E-06 1.66328264E-05 2.47299863E-06
v -1.26341283E-05 1.31915331E-05 -5.26330541E-06
v -1.67776052E-05 7.3165711E-06 -1.84891942E-05
v 7.01574527E-06 3.00399665E-06 1.75585592E-05
v 4.86615909E-06 2.11351926E-06 1.8474122E-05
v 4.54826977E-06 2.32511624E-07 1.86256893E-05
v 3.24924173E-07 2.32543456E-07 1.91170238E-05
v 3.31128513E-06 3.21887251E-06 1.86256893E-05
v 5.39637676E-06 5.30396437E-06 1.75730565E-05
v -6.06402045E-06 1.56566839E-05 6.78072911E-06
v -1.65874644E-05 7.23781568E-06 -5.26330587E-06
v -1.8208073E-05 2.32479792E-07 -1.84891942E-05
v -1.80019524E-05 2.32511624E-07 -5.26330587E-06
v -1.74471897E-05 2.32511624E-07 2.47299749E-06
v -1.60754535E-05 7.02570924E-06 2.47299658E-06
v -1.63894274E-05 2.32511624E-07 6.78072684E-06
v -1.22418451E-05 1.27992807E-05 2.47299863E-06
v -1.50993128E-05 6.62139246E-06 6.78072684E-06
v -1.47166102E-05 2.32511624E-07 1.02461781E-05
v -1.14938857E-05 1.20512577E-05 6.78072502E-06
v -1.35556438E-05 5.98201768E-06 1.02461781E-05
v -1.24676399E-05 2.32479792E-07 1.32850237E-05
v -1.03110178E-05 1.08684853E-05 1.02461836E-05
v -1.14802615E-05 5.1223542E-06 1.32850219E-05
v -9.75654257E-06 2.32543456E-07 1.57700269E-05
v -5.42461339E-06 1.4112984E-05 1.02461818E-05
v -8.72077726E-06 9.27818201E-06 1.32850219E-05
v -8.9874784E-06 4.0898999E-06 1.57682134E-05
v -6.84728229E-06 2.32543456E-07 1.75730565E-05
v 3.24892341E-07 1.5274014E-05 1.02461836E-05
v -4.56498219E-06 1.20376653E-05 1.32850237E-05
v -6.80379799E-06 7.36116999E-06 1.57700269E-05
v -6.36599225E-06 3.00399665E-06 1.75585592E-05
v 3.24892341E-07 1.30250755E-05 1.32850237E-05
v -4.21637424E-06 2.11358292E-06 1.8474122E-05
v -3.89842171E-06 2.32511624E-07 1.86256893E-05
v 3.24924173E-07 2.32543456E-07 1.91170238E-05
v -2.6615005E-06 3.2188409E-06 1.86256893E-05
v -4.74659237E-06 5.30396437E-06 1.75730565E-05
v -3.53246401E-06 9.54488223E-06 1.57682134E-05
v 5.21476704E-06 1.20376335E-05 1.32850237E-05
v 3.24892341E-07 1.03139782E-05 1.57700269E-05
v -2.44659282E-06 6.92333242E-06 1.75585592E-05
v 9.37059394E-06 9.27818201E-06 1.32850237E-05
v -1.55614703E-06 4.77377807E-06 1.84741257E-05
v -2.6615005E-06 3.2188409E-06 1.86256893E-05
v 3.24924173E-07 2.32543456E-07 1.91170238E-05
v 3.24924173E-07 4.45579371E-06 1.86256893E-05
v 3.24860508E-07 7.40465475E-06 1.75730565E-05
v 4.1822168E-06 9.54488223E-06 1.57682134E-05
v 7.45358284E-06 7.36123411E-06 1.57700269E-05
v 3.09634561E-06 6.92336471E-06 1.75585592E-05
v 2.20593188E-06 4.77374624E-06 1.8474122E-05
v 3.24924173E-07 4.45579371E-06 1.86256893E-05
v 3.31128513E-06 3.21887251E-06 1.86256893E-05
v 3.24924173E-07 2.32543456E-07 1.91170238E-05
v -1.8208073E-05 2.32479792E-07 -1.84891942E-05
v -1.68047263E-05 -6.86284875E-06 -3.49938528E-05
v -1.82374552E-05 2.32511624E-07 -3.49938528E-05
v -1.67776052E-05 -6.85154873E-06 -1.84891942E-05
v -1.28006814E-05 -1.28930615E-05 -3.49938528E-05
v -6.77043681E-06 -1.6897171E-05 -3.49938528E-05
v -6.7591991E-06 -1.68699844E-05 -1.84891942E-05
v 3.24924173E-07 -1.83298998E-05 -3.49938528E-05
v 3.24892341E-07 -1.8300454E-05 -1.84891942E-05
v 7.42022121E-06 -1.68971383E-05 -3.49938528E-05
v 7.40895211E-06 -1.68699844E-05 -1.84891924E-05
v 1.3450498E-05 -1.28930615E-05 -3.49938528E-05
v 1.34296797E-05 -1.2872275E-05 -1.84891942E-05
v 1.742739E-05 -6.85158011E-06 -1.84891942E-05
v 1.74545748E-05 -6.86281737E-06 -3.49938528E-05
v 1.3450498E-05 -1.28930615E-05 -3.49938528E-05
v 1.742739E-05 -6.85158011E-06 -1.84891942E-05
v 1.88873037E-05 2.32511624E-07 -3.49938528E-05
v 1.88578251E-05 2.32479792E-07 -1.84891942E-05
v 1.74545439E-05 7.32784065E-06 -3.49938528E-05
v 1.74273573E-05 7.31660339E-06 -1.84891942E-05
v 1.3450498E-05 1.33581489E-05 -3.49938528E-05
v 1.34296797E-05 1.3337235E-05 -1.84891942E-05
v 7.42022121E-06 1.73621629E-05 -3.49938528E-05
v 7.40898395E-06 1.7335009E-05 -1.84891942E-05
v 3.24892341E-07 1.87949227E-05 -3.49938528E-05
v 3.24892341E-07 1.87654769E-05 -1.84891942E-05
v -6.77046864E-06 1.73621938E-05 -3.49938528E-05
v -6.7591991E-06 1.73349435E-05 -1.84891942E-05
v -1.28007132E-05 1.33581179E-05 -3.49938528E-05
v -1.27798949E-05 1.33372669E-05 -1.84891942E-05
v -1.68047263E-05 7.32787248E-06 -3.49938528E-05
v -1.67776052E-05 7.3165711E-06 -1.84891942E-05
v -1.82374552E-05 2.32511624E-07 -3.49938528E-05
v -1.8208073E-05 2.32479792E-07 -1.84891942E-05
v 5.37434835E-06 4.24785731E-06 -1.59621152E-06
v 1.04637547E-05 2.07040393E-05 -5.87425029E-06
v 8.75681235E-06 8.42619102E-06 -4.54239944E-06
v 5.75001513E-06 2.0197569E-05 -1.74969955E-06
v 4.19119374E-07 3.64009293E-06 1.22786741E-06
v 1.33050826E-05 4.77725443E-05 -6.53873485E-06
v 4.56300853E-07 2.00962768E-05 1.27727105E-06
v -5.19206969E-06 4.24785731E-06 2.2496331E-06
v 7.28502437E-06 4.77725116E-05 -1.78294454E-06
v 1.90023184E-05 9.41489343E-05 -7.57720954E-06
v -5.57747762E-06 2.0197569E-05 2.30416777E-06
v -9.67692722E-06 8.42619102E-06 2.16692774E-06
v -1.18849921E-05 2.07040393E-05 2.1220078E-06
v 7.16221109E-07 4.77725116E-05 1.62309277E-06
v 1.05157715E-05 9.41489998E-05 -1.79513677E-06
v 2.2566488E-05 0.000151745538 -8.25337884E-06
v -6.76709396E-06 4.77725116E-05 2.77954086E-06
v -1.47991868E-05 4.77725443E-05 2.58623527E-06
v 1.27203339E-06 9.41489343E-05 2.3606126E-06
v 1.25214701E-05 0.000151745509 -1.8445204E-06
v 1.93084597E-05 0.000208734302 -7.58124497E-06
v -9.23361404E-06 9.41489634E-05 3.80582196E-06
v -2.04963908E-05 9.41489343E-05 3.62470746E-06
v 1.05762865E-05 0.000210798971 -1.93146161E-06
v 1.24556382E-05 0.000251166173 -5.39242228E-06
v 6.2096583E-06 0.000268200878 -1.96911469E-06
v 1.59730769E-06 0.000151745437 2.78054063E-06
v -1.07920541E-05 0.000151745437 4.43260478E-06
v -2.40605605E-05 0.000151745538 4.30087221E-06
v 1.20413256E-06 0.000211212115 2.22651511E-06
v 3.57489796E-07 0.000270678604 1.05847857E-06
v -9.37603727E-06 0.000210799029 3.78937307E-06
v -2.07335179E-05 0.000208734302 3.818408E-06
v -6.11600444E-06 0.00026820082 2.37903419E-06
v -1.34060901E-05 0.000251166173 2.93357107E-06
v -6.86845215E-06 -5.31784372E-06 -1.38456589E-05
v -1.19578908E-05 -2.17739635E-05 -1.81236956E-05
v -1.02509157E-05 -9.49611331E-06 -1.67918461E-05
v -7.2441826E-06 -2.12675241E-05 -1.39991462E-05
v -1.91325489E-06 -4.71007934E-06 -1.10215788E-05
v -1.47991868E-05 -4.88424012E-05 -1.87881815E-05
v -1.95040457E-06 -2.11661973E-05 -1.09721768E-05
v 3.69790268E-06 -5.31784372E-06 -9.99981421E-06
v -8.77915954E-06 -4.88424994E-05 -1.40323891E-05
v -2.04963908E-05 -9.52188566E-05 -1.98266553E-05
v 4.08327833E-06 -2.12674913E-05 -9.94527909E-06
v 8.18282388E-06 -9.49614514E-06 -1.008252E-05
v 1.03908569E-05 -2.17739635E-05 -1.01274391E-05
v -2.2103884E-06 -4.88424666E-05 -1.06263533E-05
v -1.20098748E-05 -9.52188566E-05 -1.40445818E-05
v -2.40605605E-05 -0.000152815424 -2.05028246E-05
v 5.27295833E-06 -4.88424666E-05 -9.46990531E-06
v 1.33050826E-05 -4.88424012E-05 -9.66321113E-06
v -2.76623268E-06 -9.52188566E-05 -9.88883039E-06
v -1.40156062E-05 -0.000152815424 -1.40939637E-05
v -2.08025322E-05 -0.000209804188 -1.98306861E-05
v 7.73944703E-06 -9.5218893E-05 -8.44362239E-06
v 1.90022856E-05 -9.52188566E-05 -8.62473735E-06
v -1.20704854E-05 -0.000211868988 -1.41809023E-05
v -1.39497424E-05 -0.000252236059 -1.76418635E-05
v -7.70379393E-06 -0.000269270735 -1.42185536E-05
v -3.09147526E-06 -0.000152815395 -9.46890214E-06
v 9.29788621E-06 -0.000152815395 -7.81683775E-06
v 2.25664553E-05 -0.000152815395 -7.94856987E-06
v -2.69823613E-06 -0.000212281971 -1.00229245E-05
v -1.85159331E-06 -0.000271748519 -1.11909603E-05
v 7.88187026E-06 -0.000211869003 -8.46006697E-06
v 1.92393818E-05 -0.000209804173 -8.43103408E-06
v 4.62186881E-06 -0.000269270735 -9.87040676E-06
v 1.1911955E-05 -0.000252236059 -9.31587056E-06
vt 1 0.5
vt 0.9375 0.5
vt 1 0.5
vt 0.9375 0.5
vt 0.875 0.5
vt 0.875 0.5
vt 0.9375 0.5625
vt 1 0.5625
vt 0.875 0.5625
vt 0.9375 0.625
vt 1 0.625
vt 0.875 0.625
vt 0.9375 0.6875
vt 1 0.6875
vt 0.875 0.6875
vt 0.9375 0.75
vt 1 0.75
vt 0.875 0.75
vt 0.9375 0.812011719
vt 1 0.8125
vt 0.875 0.812011719
vt 0.9375 0.870605469
vt 1 0.875
vt 0.875 0.875
vt 0.9375 0.916015625
vt 0.96875 0.9375
vt 0.9375 1
vt 0.90625 0.9375
vt 0.8125 0.75
vt 0.8125 0.812011719
vt 0.8125 0.870605469
vt 0.8125 0.916015625
vt 0.84375 0.9375
vt 0.8125 1
vt 0.78125 0.9375
vt 0.75 0.875
vt 0.8125 0.6875
vt 0.75 0.812011719
vt 0.8125 0.625
vt 0.75 0.75
vt 0.8125 0.5625
vt 0.75 0.6875
vt 0.75 0.625
vt 0.6875 0.870605469
vt 0.6875 0.812011719
vt 0.6875 0.75
vt 0.6875 0.916015625
vt 0.71875 0.9375
vt 0.6875 1
vt 0.65625 0.9375
vt 0.625 0.875
vt 0.6875 0.6875
vt 0.625 0.812011719
vt 0.625 0.75
vt 0.6875 0.625
vt 0.625 0.6875
vt 0.75 0.5625
vt 0.8125 0.5
vt 0.8125 0.5
vt 0.875 0.5
vt 0.5625 0.870605469
vt 0.5625 0.812011719
vt 0.5625 0.916015625
vt 0.59375 0.9375
vt 0.5625 1
vt 0.53125 0.9375
vt 0.5 0.875
vt 0.5625 0.75
vt 0.5 0.812011719
vt 0.5625 0.6875
vt 0.5 0.75
vt 0.625 0.625
vt 0.6875 0.5625
vt 0.75 0.5
vt 0.75 0.5
vt 0.8125 0.5
vt 0.6875 0.5
vt 0.6875 0.5
vt 0.625 0.5
vt 0.625 0.5625
vt 0.5625 0.625
vt 0.625 0.5
vt 0.5 0.6875
vt 0.5625 0.5625
vt 0.5 0.625
vt 0.5625 0.5
vt 0.5625 0.5
vt 0.5 0.5
vt 0.5 0.5625
vt 0.5 0.5
vt 0.4375 0.5
vt 0.4375 0.5
vt 0.375 0.5
vt 0.4375 0.5625
vt 0.4375 0.625
vt 0.4375 0.6875
vt 0.375 0.5
vt 0.3125 0.5
vt 0.375 0.5625
vt 0.375 0.625
vt 0.3125 0.5
vt 0.25 0.5
vt 0.3125 0.5625
vt 0.25 0.5
vt 0.1875 0.5
vt 0.4375 0.75
vt 0.375 0.6875
vt 0.3125 0.625
vt 0.25 0.5625
vt 0.1875 0.5
vt 0.125 0.5
vt 0.4375 0.812011719
vt 0.3125 0.6875
vt 0.25 0.625
vt 0.1875 0.5625
vt 0.125 0.5
vt 0.0625 0.5
vt 0.4375 0.870605469
vt 0.4375 0.916015625
vt 0.46875 0.9375
vt 0.4375 1
vt 0.40625 0.9375
vt 0.375 0.875
vt 0.1875 0.625
vt 0.0625 0.5
vt 0 0.5
vt 0 0.5
vt 0 0.5625
vt 0.0625 0.5625
vt 0 0.625
vt 0.125 0.5625
vt 0.0625 0.625
vt 0 0.6875
vt 0.125 0.625
vt 0.0625 0.6875
vt 0 0.75
vt 0.125 0.6875
vt 0.0625 0.75
vt 0 0.8125
vt 0.1875 0.6875
vt 0.125 0.75
vt 0.0625 0.812011719
vt 0 0.875
vt 0.25 0.6875
vt 0.1875 0.75
vt 0.125 0.812011719
vt 0.0625 0.870605469
vt 0.25 0.75
vt 0.0625 0.916015625
vt 0.03125 0.9375
vt 0.0625 1
vt 0.09375 0.9375
vt 0.125 0.875
vt 0.1875 0.812011719
vt 0.3125 0.75
vt 0.25 0.812011719
vt 0.1875 0.870605469
vt 0.375 0.75
vt 0.1875 0.916015625
vt 0.15625 0.9375
vt 0.1875 1
vt 0.21875 0.9375
vt 0.25 0.875
vt 0.3125 0.812011719
vt 0.375 0.812011719
vt 0.3125 0.870605469
vt 0.3125 0.916015625
vt 0.28125 0.9375
vt 0.34375 0.9375
vt 0.3125 1
vt 1 0.5
vt 0.9375 0.5
vt 1 0.5
vt 0.9375 0.5
vt 0.875 0.5
vt 0.8125 0.5
vt 0.8125 0.5
vt 0.75 0.5
vt 0.75 0.5
vt 0.6875 0.5
vt 0.6875 0.5
vt 0.625 0.5
vt 0.625 0.5
vt 0.5625 0.5
vt 0.5625 0.5
vt 0.625 0.5
vt 0.5625 0.5
vt 0.5 0.5
vt 0.5 0.5
vt 0.4375 0.5
vt 0.4375 0.5
vt 0.375 0.5
vt 0.375 0.5
vt 0.3125 0.5
vt 0.3125 0.5
vt 0.25 0.5
vt 0.25 0.5
vt 0.1875 0.5
vt 0.1875 0.5
vt 0.125 0.5
vt 0.125 0.5
vt 0.0625 0.5
vt 0.0625 0.5
vt 0 0.5
vt 0 0.5
vt 0 0.75
vt 0.0546264648 1
vt 0 1
vt 0.0604553223 0.750976562
vt 0 0.5
vt 0.10925293 1
vt 0.0616149902 0.5
vt 0 0.25
vt 0.160644531 0.759765625
vt 0.33203125 1.07226562
vt 0.0604553223 0.249023438
vt 0 0
vt 0.0546264648 0
vt 0.165283203 0.5
vt 0.337646484 0.78515625
vt 0.5546875 1.14453125
vt 0.160644531 0.239990234
vt 0.10925293 0
vt 0.338867188 0.5
vt 0.5546875 0.802246094
vt 0.77734375 1.07226562
vt 0.337646484 0.21496582
vt 0.33203125 -0.0720825195
vt 0.77734375 0.784179688
vt 1 1
vt 1 0.75
vt 0.5546875 0.5
vt 0.5546875 0.197998047
vt 0.5546875 -0.144165039
vt 0.77734375 0.5
vt 1 0.5
vt 0.77734375 0.215942383
vt 0.77734375 -0.0720825195
vt 1 0.25
vt 1 0
vt 0 0.75
vt 0.0546264648 1
vt 0 1
vt 0.0604553223 0.750976562
vt 0 0.5
vt 0.10925293 1
vt 0.0616149902 0.5
vt 0 0.25
vt 0.160644531 0.759765625
vt 0.33203125 1.07226562
vt 0.0604553223 0.249023438
vt 0 0
vt 0.0546264648 0
vt 0.165283203 0.5
vt 0.337646484 0.78515625
vt 0.5546875 1.14453125
vt 0.160644531 0.239990234
vt 0.10925293 0
vt 0.338867188 0.5
vt 0.5546875 0.802246094
vt 0.77734375 1.07226562
vt 0.337646484 0.21496582
vt 0.33203125 -0.0720825195
vt 0.77734375 0.784179688
vt 1 1
vt 1 0.75
vt 0.5546875 0.5
vt 0.5546875 0.197998047
vt 0.5546875 -0.144165039
vt 0.77734375 0.5
vt 1 0.5
vt 0.77734375 0.215942383
vt 0.77734375 -0.0720825195
vt 1 0.25
vt 1 0
vn -0.999023438 -1.01327896E-06 0.0434265137
vn -0.923828125 -0.382568359 0.00866699219
vn -1 -1.31130219E-06 0.00867462158
vn -0.922851562 -0.382324219 0.0433654785
vn -0.70703125 -0.70703125 0.00867462158
vn -0.706542969 -0.706542969 0.0434265137
vn -0.913085938 -0.378173828 0.153808594
vn -0.98828125 4.17232513E-07 0.153930664
vn -0.698730469 -0.698730469 0.153930664
vn -0.870605469 -0.360595703 0.334228516
vn -0.942382812 1.37090683E-06 0.334228516
vn -0.666503906 -0.666503906 0.334228516
vn -0.793945312 -0.328857422 0.51171875
vn -0.858886719 7.15255737E-07 0.51171875
vn -0.607421875 -0.607421875 0.51171875
vn -0.691894531 -0.286621094 0.662597656
vn -0.748535156 -1.1920929E-06 0.663085938
vn -0.529296875 -0.529296875 0.663085938
vn -0.56640625 -0.23449707 0.790039062
vn -0.61328125 1.84774399E-06 0.790039062
vn -0.43359375 -0.43359375 0.790039062
vn -0.416992188 -0.172729492 0.892578125
vn -0.452636719 -2.38418579E-07 0.891601562
vn -0.320068359 -0.320068359 0.891601562
vn -0.255859375 -0.106018066 0.9609375
vn -0.224853516 -1.96695328E-06 0.974609375
vn 4.17232513E-07 1.13248825E-06 1
vn -0.158935547 -0.158935547 0.974609375
vn -0.286621094 -0.691894531 0.662597656
vn -0.23449707 -0.56640625 0.790039062
vn -0.172729492 -0.416992188 0.892578125
vn -0.106018066 -0.255859375 0.9609375
vn -0.158935547 -0.158935547 0.974609375
vn 4.17232513E-07 1.13248825E-06 1
vn -4.76837158E-07 -0.224853516 0.974609375
vn 1.1920929E-07 -0.452636719 0.891601562
vn -0.328857422 -0.793945312 0.51171875
vn 1.13248825E-06 -0.61328125 0.790039062
vn -0.360595703 -0.870605469 0.334228516
vn 8.94069672E-07 -0.748535156 0.663085938
vn -0.378173828 -0.913085938 0.153808594
vn -1.07288361E-06 -0.858886719 0.51171875
vn -2.38418579E-06 -0.942382812 0.334228516
vn 0.172729492 -0.416992188 0.892578125
vn 0.23449707 -0.56640625 0.790039062
vn 0.286621094 -0.691894531 0.662597656
vn 0.106018066 -0.255859375 0.9609375
vn -4.76837158E-07 -0.224853516 0.974609375
vn 4.17232513E-07 1.13248825E-06 1
vn 0.158935547 -0.158935547 0.974609375
vn 0.320068359 -0.320068359 0.891601562
vn 0.328857422 -0.793945312 0.51171875
vn 0.43359375 -0.43359375 0.790039062
vn 0.529296875 -0.529296875 0.663085938
vn 0.360595703 -0.870605469 0.334228516
vn 0.607421875 -0.607421875 0.51171875
vn -0 -0.98828125 0.153930664
vn -0.382324219 -0.922851562 0.0433654785
vn -0.382568359 -0.923828125 0.00866699219
vn -0.70703125 -0.70703125 0.00867462158
vn 0.416992188 -0.172729492 0.892578125
vn 0.56640625 -0.23449707 0.790039062
vn 0.255859375 -0.106018066 0.9609375
vn 0.158935547 -0.158935547 0.974609375
vn 4.17232513E-07 1.13248825E-06 1
vn 0.224853516 1.78813934E-07 0.974609375
vn 0.452636719 2.32458115E-06 0.891601562
vn 0.691894531 -0.286621094 0.662597656
vn 0.61328125 3.4570694E-06 0.790039062
vn 0.793945312 -0.328857422 0.51171875
vn 0.748535156 1.90734863E-06 0.663085938
vn 0.666503906 -0.666503906 0.334228516
vn 0.378173828 -0.913085938 0.153808594
vn 3.57627869E-07 -0.999023438 0.0434265137
vn 9.53674316E-07 -1 0.00867462158
vn -0.382568359 -0.923828125 0.00866699219
vn 0.382568359 -0.923828125 0.00866699219
vn 0.382324219 -0.922851562 0.0433654785
vn 0.70703125 -0.70703125 0.00867462158
vn 0.698730469 -0.698730469 0.153930664
vn 0.870605469 -0.360595703 0.334228516
vn 0.706542969 -0.706542969 0.0434265137
vn 0.858886719 5.96046448E-07 0.51171875
vn 0.913085938 -0.378173828 0.153808594
vn 0.942382812 7.74860382E-07 0.334228516
vn 0.923828125 -0.382568359 0.00866699219
vn 0.922851562 -0.382324219 0.0433654785
vn 1 8.34465027E-07 0.00867462158
vn 0.98828125 1.07288361E-06 0.153930664
vn 0.999023438 4.17232513E-07 0.0434265137
vn 0.923828125 0.382568359 0.00866699219
vn 0.922851562 0.382324219 0.0433654785
vn 0.70703125 0.70703125 0.00867462158
vn 0.913085938 0.378173828 0.153808594
vn 0.870605469 0.360595703 0.334228516
vn 0.793945312 0.328857422 0.51171875
vn 0.706542969 0.706542969 0.0434265137
vn 0.382568359 0.923828125 0.00866699219
vn 0.698730469 0.698730469 0.153930664
vn 0.666503906 0.666503906 0.334228516
vn 0.382324219 0.922851562 0.0433654785
vn -1.43051147E-06 1 0.00867462158
vn 0.378173828 0.913085938 0.153808594
vn -2.02655792E-06 0.999023438 0.0434265137
vn -0.382568359 0.923828125 0.00866699219
vn 0.691894531 0.286621094 0.662597656
vn 0.607421875 0.607421875 0.51171875
vn 0.360595703 0.870605469 0.334228516
vn -2.74181366E-06 0.98828125 0.153930664
vn -0.382324219 0.922851562 0.0433654785
vn -0.70703125 0.70703125 0.00867462158
vn 0.56640625 0.23449707 0.790039062
vn 0.328857422 0.793945312 0.51171875
vn -1.78813934E-06 0.942382812 0.334228516
vn -0.378173828 0.913085938 0.153808594
vn -0.706542969 0.706542969 0.0434265137
vn -0.923828125 0.382568359 0.00866699219
vn 0.416992188 0.172729492 0.892578125
vn 0.255859375 0.105957031 0.9609375
vn 0.224853516 1.78813934E-07 0.974609375
vn 4.17232513E-07 1.13248825E-06 1
vn 0.158935547 0.158935547 0.974609375
vn 0.320068359 0.320068359 0.891601562
vn -0.360595703 0.870605469 0.334228516
vn -0.922851562 0.382324219 0.0433654785
vn -1 -1.31130219E-06 0.00867462158
vn -0.999023438 -1.01327896E-06 0.0434265137
vn -0.98828125 4.17232513E-07 0.153930664
vn -0.913085938 0.378173828 0.153808594
vn -0.942382812 1.37090683E-06 0.334228516
vn -0.698730469 0.698730469 0.153930664
vn -0.870605469 0.360595703 0.333984375
vn -0.858886719 7.15255737E-07 0.51171875
vn -0.666503906 0.666503906 0.334228516
vn -0.793945312 0.328857422 0.51171875
vn -0.748535156 -1.1920929E-06 0.663085938
vn -0.607421875 0.607421875 0.51171875
vn -0.691894531 0.286621094 0.662597656
vn -0.61328125 1.84774399E-06 0.790039062
vn -0.328857422 0.793945312 0.51171875
vn -0.529296875 0.529296875 0.663085938
vn -0.56640625 0.23449707 0.790039062
vn -0.452636719 -2.38418579E-07 0.891601562
vn 2.38418579E-07 0.858886719 0.51171875
vn -0.286621094 0.691894531 0.662597656
vn -0.43359375 0.43359375 0.790039062
vn -0.416992188 0.172729492 0.892578125
vn 4.76837158E-07 0.748535156 0.663085938
vn -0.255859375 0.106018066 0.9609375
vn -0.224853516 -1.96695328E-06 0.974609375
vn 4.17232513E-07 1.13248825E-06 1
vn -0.158935547 0.158935547 0.974609375
vn -0.320068359 0.320068359 0.891601562
vn -0.23449707 0.56640625 0.790039062
vn 0.286621094 0.691894531 0.662597656
vn 7.15255737E-07 0.61328125 0.790039062
vn -0.172729492 0.416992188 0.892578125
vn 0.529296875 0.529296875 0.663085938
vn -0.105957031 0.255859375 0.9609375
vn -0.158935547 0.158935547 0.974609375
vn 4.17232513E-07 1.13248825E-06 1
vn 7.15255737E-07 0.224853516 0.974609375
vn -1.01327896E-06 0.452636719 0.891601562
vn 0.23449707 0.56640625 0.790039062
vn 0.43359375 0.43359375 0.790039062
vn 0.172729492 0.416992188 0.892578125
vn 0.105957031 0.255859375 0.9609375
vn 7.15255737E-07 0.224853516 0.974609375
vn 0.158935547 0.158935547 0.974609375
vn 4.17232513E-07 1.13248825E-06 1
vn -1 -1.31130219E-06 0.00867462158
vn -0.923828125 -0.382568359 0.00177955627
vn -1 -1.78813934E-07 0.00178050995
vn -0.923828125 -0.382568359 0.00866699219
vn -0.70703125 -0.70703125 0.00178337097
vn -0.382568359 -0.923828125 0.00178146362
vn -0.382568359 -0.923828125 0.00866699219
vn 1.96695328E-06 -1 0.00178432465
vn 9.53674316E-07 -1 0.00867462158
vn 0.382568359 -0.923828125 0.00178146362
vn 0.382568359 -0.923828125 0.00866699219
vn 0.70703125 -0.70703125 0.00178337097
vn 0.70703125 -0.70703125 0.00867462158
vn 0.923828125 -0.382568359 0.00866699219
vn 0.923828125 -0.382568359 0.0017824173
vn 0.70703125 -0.70703125 0.00178337097
vn 0.923828125 -0.382568359 0.00866699219
vn 1 1.96695328E-06 0.00178527832
vn 1 8.34465027E-07 0.00867462158
vn 0.923828125 0.382568359 0.00178337097
vn 0.923828125 0.382568359 0.00866699219
vn 0.70703125 0.70703125 0.00178527832
vn 0.70703125 0.70703125 0.00867462158
vn 0.382568359 0.923828125 0.0017824173
vn 0.382568359 0.923828125 0.00866699219
vn -8.94069672E-07 1 0.00178527832
vn -1.43051147E-06 1 0.00867462158
vn -0.382568359 0.923828125 0.00178432465
vn -0.382568359 0.923828125 0.00866699219
vn -0.70703125 0.70703125 0.00178527832
vn -0.70703125 0.70703125 0.00867462158
vn -0.923828125 0.382568359 0.00178050995
vn -0.923828125 0.382568359 0.00866699219
vn -1 -1.78813934E-07 0.00178050995
vn -1 -1.31130219E-06 0.00867462158
vn 0.55078125 -0.00538253784 0.834472656
vn 0.647949219 -0.0275268555 0.761230469
vn 0.660644531 -0.00926208496 0.750488281
vn 0.570800781 -0.0182495117 0.821289062
vn 0.339599609 -0.00244903564 0.940429688
vn 0.611328125 -0.0445556641 0.790039062
vn 0.331054688 -0.00938415527 0.943359375
vn 0.110229492 -0.00175380707 0.994140625
vn 0.535644531 -0.0335693359 0.84375
vn 0.567382812 -0.0336303711 0.822753906
vn 0.0708618164 -0.00861358643 0.997558594
vn -0.0257110596 -0.00270271301 0.999511719
vn -0.0263671875 -0.0121459961 0.999511719
vn 0.306640625 -0.0184783936 0.951660156
vn 0.494628906 -0.0263519287 0.868652344
vn 0.545898438 -0.000598430634 0.837890625
vn 0.0643920898 -0.0178070068 0.997558594
vn -0.022857666 -0.0217590332 0.999511719
vn 0.280029297 -0.0149383545 0.959960938
vn 0.475097656 0.000113070011 0.879882812
vn 0.548828125 0.0300140381 0.835449219
vn 0.0606689453 -0.0149078369 0.998046875
vn -0.0158691406 -0.0175628662 0.999511719
vn 0.484863281 0.0274810791 0.874023438
vn 0.559082031 0.0449829102 0.828125
vn 0.449951172 0.0309143066 0.892578125
vn 0.270019531 0.000760555267 0.962890625
vn 0.0626831055 -0.000198245049 0.998046875
vn -0.00887298584 -0.00097322464 1
vn 0.285888672 0.0174560547 0.958007812
vn 0.299560547 0.0236663818 0.953613281
vn 0.0760498047 0.0151443481 0.997070312
vn 0.000513553619 0.0148010254 1
vn 0.140869141 0.018951416 0.989746094
vn 0.00868988037 0.022064209 0.999511719
vn -0.55078125 0.00538253784 0.834472656
vn -0.647949219 0.0275268555 0.761230469
vn -0.660644531 0.00926208496 0.750488281
vn -0.570800781 0.0182495117 0.821289062
vn -0.339599609 0.00244903564 0.940429688
vn -0.611328125 0.0445251465 0.790039062
vn -0.331054688 0.00938415527 0.943359375
vn -0.110229492 0.00175380707 0.994140625
vn -0.535644531 0.0335693359 0.84375
vn -0.567382812 0.0336303711 0.822753906
vn -0.0708618164 0.00861358643 0.997558594
vn 0.0257110596 0.00270271301 0.999511719
vn 0.0263671875 0.0121459961 0.999511719
vn -0.306640625 0.0184783936 0.951660156
vn -0.494628906 0.0263519287 0.868652344
vn -0.545898438 0.000598430634 0.837890625
vn -0.0643920898 0.0178070068 0.997558594
vn 0.022857666 0.0217590332 0.999511719
vn -0.280029297 0.0149383545 0.959960938
vn -0.475097656 -0.000112950802 0.879882812
vn -0.548828125 -0.0300140381 0.835449219
vn -0.0606689453 0.0149078369 0.998046875
vn 0.0158691406 0.0175628662 0.999511719
vn -0.484863281 -0.0274810791 0.874023438
vn -0.559082031 -0.0449829102 0.828125
vn -0.449951172 -0.0309143066 0.892578125
vn -0.270019531 -0.000760555267 0.962890625
vn -0.0626831055 0.000198125839 0.998046875
vn 0.00887298584 0.000973701477 1
vn -0.285888672 -0.0174560547 0.958007812
vn -0.299560547 -0.0236663818 0.953613281
vn -0.0760498047 -0.0151443481 0.997070312
vn -0.000513076782 -0.0148010254 1
vn -0.140869141 -0.018951416 0.989746094
vn -0.00868988037 -0.022064209 0.999511719
g Propeller4_0
f 3/3/3 2/2/2 1/1/1
f 2/2/2 4/4/4 1/1/1
f 2/2/2 5/5/5 4/4/4
f 5/5/5 6/6/6 4/4/4
f 4/4/4 7/7/7 1/1/1
f 7/7/7 8/8/8 1/1/1
f 6/6/6 9/9/9 4/4/4
f 9/9/9 7/7/7 4/4/4
f 7/7/7 10/10/10 8/8/8
f 10/10/10 11/11/11 8/8/8
f 9/9/9 12/12/12 7/7/7
f 12/12/12 10/10/10 7/7/7
f 10/10/10 13/13/13 11/11/11
f 13/13/13 14/14/14 11/11/11
f 12/12/12 15/15/15 10/10/10
f 15/15/15 13/13/13 10/10/10
f 13/13/13 16/16/16 14/14/14
f 16/16/16 17/17/17 14/14/14
f 15/15/15 18/18/18 13/13/13
f 18/18/18 16/16/16 13/13/13
f 16/16/16 19/19/19 17/17/17
f 19/19/19 20/20/20 17/17/17
f 18/18/18 21/21/21 16/16/16
f 21/21/21 19/19/19 16/16/16
f 19/19/19 22/22/22 20/20/20
f 22/22/22 23/23/23 20/20/20
f 24/24/24 22/22/22 19/19/19
f 21/21/21 24/24/24 19/19/19
f 22/22/22 25/25/25 23/23/23
f 25/25/25 22/22/22 24/24/24
f 25/25/25 26/26/26 23/23/23
f 26/26/26 25/25/25 27/27/27
f 25/25/25 28/28/28 27/27/27
f 28/28/28 25/25/25 24/24/24
f 29/29/29 18/18/18 15/15/15
f 30/30/30 21/21/21 18/18/18
f 29/29/29 30/30/30 18/18/18
f 31/31/31 24/24/24 21/21/21
f 30/30/30 31/31/31 21/21/21
f 31/31/31 32/32/32 24/24/24
f 32/32/32 33/33/33 24/24/24
f 33/33/33 32/32/32 34/34/34
f 32/32/32 35/35/35 34/34/34
f 35/35/35 32/32/32 36/36/36
f 32/32/32 31/31/31 36/36/36
f 36/36/36 31/31/31 30/30/30
f 37/37/37 29/29/29 15/15/15
f 37/37/37 15/15/15 12/12/12
f 38/38/38 30/30/30 29/29/29
f 38/38/38 36/36/36 30/30/30
f 39/39/39 37/37/37 12/12/12
f 39/39/39 12/12/12 9/9/9
f 40/40/40 29/29/29 37/37/37
f 40/40/40 38/38/38 29/29/29
f 41/41/41 39/39/39 9/9/9
f 41/41/41 9/9/9 6/6/6
f 42/42/42 37/37/37 39/39/39
f 42/42/42 40/40/40 37/37/37
f 43/43/43 39/39/39 41/41/41
f 43/43/43 42/42/42 39/39/39
f 44/44/44 36/36/36 38/38/38
f 45/45/45 38/38/38 40/40/40
f 45/45/45 44/44/44 38/38/38
f 46/46/46 40/40/40 42/42/42
f 46/46/46 45/45/45 40/40/40
f 44/44/44 47/47/47 36/36/36
f 47/47/47 48/48/48 36/36/36
f 48/48/48 47/47/47 49/49/49
f 47/47/47 50/50/50 49/49/49
f 50/50/50 47/47/47 51/51/51
f 47/47/47 44/44/44 51/51/51
f 51/51/51 44/44/44 45/45/45
f 52/52/52 42/42/42 43/43/43
f 52/52/52 46/46/46 42/42/42
f 53/53/53 45/45/45 46/46/46
f 53/53/53 51/51/51 45/45/45
f 54/54/54 46/46/46 52/52/52
f 54/54/54 53/53/53 46/46/46
f 55/55/55 52/52/52 43/43/43
f 56/56/56 54/54/54 52/52/52
f 56/56/56 52/52/52 55/55/55
f 55/55/55 43/43/43 57/57/57
f 57/57/57 43/43/43 41/41/41
f 57/57/57 41/41/41 58/58/58
f 58/58/58 41/41/41 6/6/6
f 59/59/59 58/58/58 6/6/6
f 60/60/60 59/59/59 6/6/6
f 61/61/61 51/51/51 53/53/53
f 62/62/62 53/53/53 54/54/54
f 62/62/62 61/61/61 53/53/53
f 61/61/61 63/63/63 51/51/51
f 63/63/63 64/64/64 51/51/51
f 64/64/64 63/63/63 65/65/65
f 63/63/63 66/66/66 65/65/65
f 66/66/66 63/63/63 67/67/67
f 63/63/63 61/61/61 67/67/67
f 67/67/67 61/61/61 62/62/62
f 68/68/68 62/62/62 54/54/54
f 68/68/68 54/54/54 56/56/56
f 69/69/69 67/67/67 62/62/62
f 69/69/69 62/62/62 68/68/68
f 70/70/70 68/68/68 56/56/56
f 71/71/71 69/69/69 68/68/68
f 71/71/71 68/68/68 70/70/70
f 70/70/70 56/56/56 72/72/72
f 72/72/72 56/56/56 55/55/55
f 72/72/72 55/55/55 73/73/73
f 73/73/73 55/55/55 57/57/57
f 73/73/73 57/57/57 74/74/74
f 74/74/74 57/57/57 58/58/58
f 75/75/75 74/74/74 58/58/58
f 76/76/76 75/75/75 58/58/58
f 75/75/75 77/77/77 74/74/74
f 77/77/77 78/78/78 74/74/74
f 78/78/78 73/73/73 74/74/74
f 77/77/77 79/79/79 78/78/78
f 80/80/80 72/72/72 73/73/73
f 80/80/80 73/73/73 78/78/78
f 81/81/81 70/70/70 72/72/72
f 81/81/81 72/72/72 80/80/80
f 82/82/82 80/80/80 78/78/78
f 79/79/79 82/82/82 78/78/78
f 83/83/83 70/70/70 81/81/81
f 83/83/83 71/71/71 70/70/70
f 84/84/84 81/81/81 80/80/80
f 84/84/84 80/80/80 82/82/82
f 85/85/85 83/83/83 81/81/81
f 85/85/85 81/81/81 84/84/84
f 79/79/79 86/86/86 82/82/82
f 86/86/86 87/87/87 82/82/82
f 87/87/87 84/84/84 82/82/82
f 86/86/86 88/88/88 87/87/87
f 89/89/89 84/84/84 87/87/87
f 89/89/89 85/85/85 84/84/84
f 88/88/88 90/90/90 87/87/87
f 90/90/90 89/89/89 87/87/87
f 88/88/88 91/91/91 90/90/90
f 91/91/91 92/92/92 90/90/90
f 91/91/91 93/93/93 92/92/92
f 94/94/94 89/89/89 90/90/90
f 92/92/92 94/94/94 90/90/90
f 95/95/95 85/85/85 89/89/89
f 94/94/94 95/95/95 89/89/89
f 96/96/96 83/83/83 85/85/85
f 95/95/95 96/96/96 85/85/85
f 93/93/93 97/97/97 92/92/92
f 93/93/93 98/98/98 97/97/97
f 99/99/99 94/94/94 92/92/92
f 97/97/97 99/99/99 92/92/92
f 100/100/100 95/95/95 94/94/94
f 99/99/99 100/100/100 94/94/94
f 98/98/98 101/101/101 97/97/97
f 98/98/98 102/102/102 101/101/101
f 103/103/103 99/99/99 97/97/97
f 101/101/101 103/103/103 97/97/97
f 102/102/102 104/104/104 101/101/101
f 102/102/102 105/105/105 104/104/104
f 96/96/96 106/106/106 83/83/83
f 106/106/106 71/71/71 83/83/83
f 107/107/107 96/96/96 95/95/95
f 100/100/100 107/107/107 95/95/95
f 108/108/108 100/100/100 99/99/99
f 103/103/103 108/108/108 99/99/99
f 109/109/109 103/103/103 101/101/101
f 104/104/104 109/109/109 101/101/101
f 105/105/105 110/110/110 104/104/104
f 105/105/105 111/111/111 110/110/110
f 106/106/106 112/112/112 71/71/71
f 112/112/112 69/69/69 71/71/71
f 113/113/113 107/107/107 100/100/100
f 108/108/108 113/113/113 100/100/100
f 114/114/114 108/108/108 103/103/103
f 109/109/109 114/114/114 103/103/103
f 115/115/115 109/109/109 104/104/104
f 110/110/110 115/115/115 104/104/104
f 111/111/111 116/116/116 110/110/110
f 111/111/111 117/117/117 116/116/116
f 112/112/112 118/118/118 69/69/69
f 118/118/118 67/67/67 69/69/69
f 118/118/118 119/119/119 67/67/67
f 119/119/119 120/120/120 67/67/67
f 120/120/120 119/119/119 121/121/121
f 119/119/119 122/122/122 121/121/121
f 122/122/122 119/119/119 123/123/123
f 119/119/119 118/118/118 123/123/123
f 123/123/123 118/118/118 112/112/112
f 115/115/115 124/124/124 109/109/109
f 124/124/124 114/114/114 109/109/109
f 117/117/117 125/125/125 116/116/116
f 117/117/117 126/126/126 125/125/125
f 126/126/126 127/127/127 125/125/125
f 127/127/127 128/128/128 125/125/125
f 128/128/128 129/129/129 125/125/125
f 125/125/125 129/129/129 116/116/116
f 128/128/128 130/130/130 129/129/129
f 129/129/129 131/131/131 116/116/116
f 116/116/116 131/131/131 110/110/110
f 131/131/131 115/115/115 110/110/110
f 130/130/130 132/132/132 129/129/129
f 129/129/129 132/132/132 131/131/131
f 130/130/130 133/133/133 132/132/132
f 131/131/131 134/134/134 115/115/115
f 132/132/132 134/134/134 131/131/131
f 134/134/134 124/124/124 115/115/115
f 133/133/133 135/135/135 132/132/132
f 132/132/132 135/135/135 134/134/134
f 133/133/133 136/136/136 135/135/135
f 134/134/134 137/137/137 124/124/124
f 135/135/135 137/137/137 134/134/134
f 136/136/136 138/138/138 135/135/135
f 135/135/135 138/138/138 137/137/137
f 136/136/136 139/139/139 138/138/138
f 137/137/137 140/140/140 124/124/124
f 124/124/124 140/140/140 114/114/114
f 138/138/138 141/141/141 137/137/137
f 137/137/137 141/141/141 140/140/140
f 139/139/139 142/142/142 138/138/138
f 138/138/138 142/142/142 141/141/141
f 139/139/139 143/143/143 142/142/142
f 140/140/140 144/144/144 114/114/114
f 114/114/114 144/144/144 108/108/108
f 144/144/144 113/113/113 108/108/108
f 141/141/141 145/145/145 140/140/140
f 140/140/140 145/145/145 144/144/144
f 142/142/142 146/146/146 141/141/141
f 141/141/141 146/146/146 145/145/145
f 143/143/143 147/147/147 142/142/142
f 142/142/142 147/147/147 146/146/146
f 144/144/144 148/148/148 113/113/113
f 145/145/145 148/148/148 144/144/144
f 149/149/149 147/147/147 143/143/143
f 150/150/150 149/149/149 143/143/143
f 149/149/149 150/150/150 151/151/151
f 152/152/152 149/149/149 151/151/151
f 149/149/149 152/152/152 153/153/153
f 147/147/147 149/149/149 153/153/153
f 147/147/147 153/153/153 146/146/146
f 146/146/146 154/154/154 145/145/145
f 145/145/145 154/154/154 148/148/148
f 146/146/146 153/153/153 154/154/154
f 148/148/148 155/155/155 113/113/113
f 113/113/113 155/155/155 107/107/107
f 154/154/154 156/156/156 148/148/148
f 148/148/148 156/156/156 155/155/155
f 153/153/153 157/157/157 154/154/154
f 154/154/154 157/157/157 156/156/156
f 155/155/155 158/158/158 107/107/107
f 107/107/107 158/158/158 96/96/96
f 158/158/158 106/106/106 96/96/96
f 159/159/159 157/157/157 153/153/153
f 160/160/160 159/159/159 153/153/153
f 159/159/159 160/160/160 161/161/161
f 162/162/162 159/159/159 161/161/161
f 159/159/159 162/162/162 163/163/163
f 157/157/157 159/159/159 163/163/163
f 157/157/157 163/163/163 156/156/156
f 156/156/156 164/164/164 155/155/155
f 155/155/155 164/164/164 158/158/158
f 156/156/156 163/163/163 164/164/164
f 158/158/158 165/165/165 106/106/106
f 164/164/164 165/165/165 158/158/158
f 165/165/165 112/112/112 106/106/106
f 165/165/165 123/123/123 112/112/112
f 164/164/164 166/166/166 165/165/165
f 163/163/163 166/166/166 164/164/164
f 166/166/166 123/123/123 165/165/165
f 167/167/167 166/166/166 163/163/163
f 166/166/166 167/167/167 123/123/123
f 168/168/168 167/167/167 163/163/163
f 167/167/167 169/169/169 123/123/123
f 167/167/167 168/168/168 170/170/170
f 169/169/169 167/167/167 170/170/170
f 173/173/173 172/172/172 171/171/171
f 172/172/172 174/174/174 171/171/171
f 172/172/172 175/175/175 174/174/174
f 175/175/175 60/60/60 174/174/174
f 175/175/175 176/176/176 60/60/60
f 176/176/176 177/177/177 60/60/60
f 176/176/176 178/178/178 177/177/177
f 178/178/178 179/179/179 177/177/177
f 178/178/178 180/180/180 179/179/179
f 180/180/180 181/181/181 179/179/179
f 180/180/180 182/182/182 181/181/181
f 182/182/182 183/183/183 181/181/181
f 185/185/185 184/184/184 79/79/79
f 186/186/186 185/185/185 79/79/79
f 185/185/185 188/188/188 187/187/187
f 188/188/188 189/189/189 187/187/187
f 188/188/188 190/190/190 189/189/189
f 190/190/190 191/191/191 189/189/189
f 190/190/190 192/192/192 191/191/191
f 192/192/192 193/193/193 191/191/191
f 192/192/192 194/194/194 193/193/193
f 194/194/194 195/195/195 193/193/193
f 194/194/194 196/196/196 195/195/195
f 196/196/196 197/197/197 195/195/195
f 196/196/196 198/198/198 197/197/197
f 198/198/198 199/199/199 197/197/197
f 198/198/198 200/200/200 199/199/199
f 200/200/200 201/201/201 199/199/199
f 200/200/200 202/202/202 201/201/201
f 202/202/202 203/203/203 201/201/201
f 202/202/202 204/204/204 203/203/203
f 204/204/204 205/205/205 203/203/203
f 208/208/208 207/207/207 206/206/206
f 207/207/207 209/209/209 206/206/206
f 206/206/206 209/209/209 210/210/210
f 207/207/207 211/211/211 209/209/209
f 209/209/209 212/212/212 210/210/210
f 210/210/210 212/212/212 213/213/213
f 211/211/211 214/214/214 209/209/209
f 209/209/209 214/214/214 212/212/212
f 211/211/211 215/215/215 214/214/214
f 212/212/212 216/216/216 213/213/213
f 213/213/213 216/216/216 217/217/217
f 216/216/216 218/218/218 217/217/217
f 214/214/214 219/219/219 212/212/212
f 212/212/212 219/219/219 216/216/216
f 215/215/215 220/220/220 214/214/214
f 214/214/214 220/220/220 219/219/219
f 215/215/215 221/221/221 220/220/220
f 216/216/216 222/222/222 218/218/218
f 219/219/219 222/222/222 216/216/216
f 222/222/222 223/223/223 218/218/218
f 220/220/220 224/224/224 219/219/219
f 219/219/219 224/224/224 222/222/222
f 221/221/221 225/225/225 220/220/220
f 220/220/220 225/225/225 224/224/224
f 221/221/221 226/226/226 225/225/225
f 222/222/222 227/227/227 223/223/223
f 224/224/224 227/227/227 222/222/222
f 227/227/227 228/228/228 223/223/223
f 226/226/226 229/229/229 225/225/225
f 226/226/226 230/230/230 229/229/229
f 230/230/230 231/231/231 229/229/229
f 225/225/225 232/232/232 224/224/224
f 224/224/224 232/232/232 227/227/227
f 225/225/225 229/229/229 232/232/232
f 227/227/227 233/233/233 228/228/228
f 232/232/232 233/233/233 227/227/227
f 233/233/233 234/234/234 228/228/228
f 229/229/229 231/231/231 235/235/235
f 229/229/229 235/235/235 232/232/232
f 232/232/232 235/235/235 233/233/233
f 231/231/231 236/236/236 235/235/235
f 233/233/233 237/237/237 234/234/234
f 235/235/235 237/237/237 233/233/233
f 235/235/235 236/236/236 237/237/237
f 237/237/237 238/238/238 234/234/234
f 236/236/236 239/239/239 237/237/237
f 237/237/237 239/239/239 238/238/238
f 239/239/239 240/240/240 238/238/238
f 243/243/243 242/242/242 241/241/241
f 242/242/242 244/244/244 241/241/241
f 241/241/241 244/244/244 245/245/245
f 242/242/242 246/246/246 244/244/244
f 244/244/244 247/247/247 245/245/245
f 245/245/245 247/247/247 248/248/248
f 246/246/246 249/249/249 244/244/244
f 244/244/244 249/249/249 247/247/247
f 246/246/246 250/250/250 249/249/249
f 247/247/247 251/251/251 248/248/248
f 248/248/248 251/251/251 252/252/252
f 251/251/251 253/253/253 252/252/252
f 249/249/249 254/254/254 247/247/247
f 247/247/247 254/254/254 251/251/251
f 250/250/250 255/255/255 249/249/249
f 249/249/249 255/255/255 254/254/254
f 250/250/250 256/256/256 255/255/255
f 251/251/251 257/257/257 253/253/253
f 254/254/254 257/257/257 251/251/251
f 257/257/257 258/258/258 253/253/253
f 255/255/255 259/259/259 254/254/254
f 254/254/254 259/259/259 257/257/257
f 256/256/256 260/260/260 255/255/255
f 255/255/255 260/260/260 259/259/259
f 256/256/256 261/261/261 260/260/260
f 257/257/257 262/262/262 258/258/258
f 259/259/259 262/262/262 257/257/257
f 262/262/262 263/263/263 258/258/258
f 261/261/261 264/264/264 260/260/260
f 261/261/261 265/265/265 264/264/264
f 265/265/265 266/266/266 264/264/264
f 260/260/260 267/267/267 259/259/259
f 259/259/259 267/267/267 262/262/262
f 260/260/260 264/264/264 267/267/267
f 262/262/262 268/268/268 263/263/263
f 267/267/267 268/268/268 262/262/262
f 268/268/268 269/269/269 263/263/263
f 264/264/264 266/266/266 270/270/270
f 264/264/264 270/270/270 267/267/267
f 267/267/267 270/270/270 268/268/268
f 266/266/266 271/271/271 270/270/270
f 268/268/268 272/272/272 269/269/269
f 270/270/270 272/272/272 268/268/268
f 270/270/270 271/271/271 272/272/272
f 272/272/272 273/273/273 269/269/269
f 271/271/271 274/274/274 272/272/272
f 272/272/272 274/274/274 273/273/273
f 274/274/274 275/275/275 273/273/273
