g Propeller2
v 6.86845215E-06 -5.31778005E-06 -1.38456608E-05
v 1.02509157E-05 -9.49608147E-06 -1.67918479E-05
v 1.19578908E-05 -2.1773898E-05 -1.81236992E-05
v 7.2441826E-06 -2.12674277E-05 -1.39991471E-05
v 1.91325489E-06 -4.71001567E-06 -1.10215797E-05
v 1.47991868E-05 -4.88423393E-05 -1.87881815E-05
v 1.95040457E-06 -2.11661645E-05 -1.09721777E-05
v -3.69790268E-06 -5.31778005E-06 -9.99981603E-06
v 8.77912862E-06 -4.88424012E-05 -1.40323909E-05
v 2.04963908E-05 -9.52187911E-05 -1.98266589E-05
v -4.08331061E-06 -2.12674604E-05 -9.94528E-06
v -8.18282388E-06 -9.49604964E-06 -1.008252E-05
v -1.03908569E-05 -2.1773898E-05 -1.012744E-05
v 2.21035657E-06 -4.88423684E-05 -1.06263533E-05
v 1.20099057E-05 -9.52187911E-05 -1.40445818E-05
v 2.40605605E-05 -0.000152815337 -2.05028246E-05
v -5.27299062E-06 -4.88423684E-05 -9.46990622E-06
v -1.33050826E-05 -4.88423393E-05 -9.66321204E-06
v 2.76623268E-06 -9.52187911E-05 -9.88883312E-06
v 1.40155744E-05 -0.000152815337 -1.40939646E-05
v 2.08025631E-05 -0.000209804115 -1.9830688E-05
v -7.73944703E-06 -9.52188275E-05 -8.4436233E-06
v -1.90022856E-05 -9.52187911E-05 -8.62473917E-06
v 1.20704535E-05 -0.00021186893 -1.41809051E-05
v 1.39497424E-05 -0.000252236001 -1.76418635E-05
v 7.70379393E-06 -0.000269270677 -1.42185554E-05
v 3.09147526E-06 -0.000152815352 -9.46890395E-06
v -9.29788621E-06 -0.000152815337 -7.81683866E-06
v -2.25664553E-05 -0.000152815352 -7.94857169E-06
v 2.69823613E-06 -0.000212281899 -1.00229272E-05
v 1.85159331E-06 -0.00027174846 -1.11909612E-05
v -7.88187026E-06 -0.00021186893 -8.46006787E-06
v -1.92393818E-05 -0.00020980413 -8.43103589E-06
v -4.62186881E-06 -0.000269270677 -9.87040676E-06
v -1.1911955E-05 -0.000252236001 -9.31587147E-06
v -5.37431606E-06 4.24792097E-06 -1.59621254E-06
v -8.75681235E-06 8.42625468E-06 -4.5424008E-06
v -1.04637547E-05 2.0704103E-05 -5.87425075E-06
v -5.75004651E-06 2.01976327E-05 -1.74970046E-06
v -4.19119374E-07 3.64015659E-06 1.22786639E-06
v -1.33050826E-05 4.77726062E-05 -6.53873576E-06
v -4.56269021E-07 2.00963386E-05 1.27727003E-06
v 5.19206969E-06 4.24792097E-06 2.24963196E-06
v -7.28502437E-06 4.77725443E-05 -1.78294454E-06
v -1.90022856E-05 9.41489998E-05 -7.57721136E-06
v 5.57747762E-06 2.01976327E-05 2.30416686E-06
v 9.67692722E-06 8.42625468E-06 2.16692683E-06
v 1.18849921E-05 2.0704103E-05 2.1220078E-06
v -7.16284774E-07 4.77726062E-05 1.62309175E-06
v -1.05157387E-05 9.41490289E-05 -1.79513779E-06
v -2.25664553E-05 0.000151745597 -8.25337975E-06
v 6.76709396E-06 4.77726062E-05 2.77953995E-06
v 1.47991868E-05 4.77726062E-05 2.58623413E-06
v -1.27200155E-06 9.41489998E-05 2.36061146E-06
v -1.25215029E-05 0.000151745568 -1.84452142E-06
v -1.93084597E-05 0.000208734375 -7.58124543E-06
v 9.23361404E-06 9.41490289E-05 3.80582082E-06
v 2.04963908E-05 9.41489998E-05 3.62470655E-06
v -1.05762865E-05 0.000210799102 -1.93146252E-06
v -1.24556382E-05 0.000251166231 -5.39242319E-06
v -6.2096583E-06 0.000268200878 -1.9691156E-06
v -1.59733952E-06 0.000151745538 2.78053972E-06
v 1.0792085E-05 0.000151745538 4.43260387E-06
v 2.40605605E-05 0.000151745597 4.3008713E-06
v -1.20413256E-06 0.000211212115 2.22651511E-06
v -3.57521628E-07 0.000270678662 1.05847766E-06
v 9.37603727E-06 0.00021079916 3.78937307E-06
v 2.07335179E-05 0.000208734375 3.81840709E-06
v 6.11597261E-06 0.000268200936 2.37903328E-06
v 1.34060901E-05 0.000251166231 2.93356993E-06
v 1.82081039E-05 2.32575289E-07 -1.84891942E-05
v 1.82374552E-05 2.32575289E-07 -3.49938528E-05
v 1.68047263E-05 -6.86272188E-06 -3.49938528E-05
v 1.67776052E-05 -6.85151645E-06 -1.84891942E-05
v 1.28006814E-05 -1.28929987E-05 -3.49938528E-05
v 1.80020143E-05 2.32575289E-07 -5.26330678E-06
v 1.27798949E-05 -1.28722122E-05 -1.84891942E-05
v 6.77046864E-06 -1.68971073E-05 -3.49938528E-05
v 1.65873989E-05 -6.77276057E-06 -5.26330678E-06
v 6.7591991E-06 -1.68699207E-05 -1.84891942E-05
v -3.24924173E-07 -1.83298362E-05 -3.49938528E-05
v 1.60754535E-05 -6.56065413E-06 2.47299749E-06
v 1.74471897E-05 2.32575289E-07 2.47299749E-06
v 1.26341929E-05 -1.27264775E-05 -5.26330723E-06
v -3.24892341E-07 -1.83003904E-05 -1.84891942E-05
v -7.42022121E-06 -1.68970764E-05 -3.49938528E-05
v 1.50993128E-05 -6.15627368E-06 6.78072547E-06
v 1.63893637E-05 2.32575289E-07 6.78072547E-06
v 1.22418451E-05 -1.23341624E-05 2.47299749E-06
v 6.68037956E-06 -1.66797799E-05 -5.26330723E-06
v -7.40898395E-06 -1.68699535E-05 -1.84891942E-05
v -1.3450498E-05 -1.28929987E-05 -3.49938528E-05
v 1.14939176E-05 -1.15861721E-05 6.78072547E-06
v 1.3555612E-05 -5.51693029E-06 1.02461781E-05
v 1.47166429E-05 2.32575289E-07 1.02461781E-05
v 6.46833723E-06 -1.61677708E-05 2.47299749E-06
v -3.24892341E-07 -1.80943007E-05 -5.26330723E-06
v -1.34296797E-05 -1.28722122E-05 -1.84891942E-05
v -1.74545439E-05 -6.86275371E-06 -3.49938528E-05
v 1.03110506E-05 -1.04033033E-05 1.02461781E-05
v 1.14802615E-05 -4.65723588E-06 1.32850228E-05
v 1.24676399E-05 2.32575289E-07 1.32850228E-05
v -3.24892341E-07 -1.75395071E-05 2.47299658E-06
v -7.33022807E-06 -1.6679749E-05 -5.26330723E-06
v -1.742739E-05 -6.85148461E-06 -1.84891942E-05
v -1.88873037E-05 2.32575289E-07 -3.49938528E-05
v 8.72084092E-06 -8.81309461E-06 1.32850228E-05
v 8.98754206E-06 -3.6247809E-06 1.57682098E-05
v 9.7565744E-06 2.32607121E-07 1.57700233E-05
v -7.11815346E-06 -1.61678017E-05 2.47299749E-06
v -1.3283945E-05 -1.27265412E-05 -5.26330723E-06
v -1.88578251E-05 2.32543456E-07 -1.84891942E-05
v -1.74545439E-05 7.32790431E-06 -3.49938528E-05
v 6.80382982E-06 -6.89614717E-06 1.57700233E-05
v 6.36596042E-06 -2.53890994E-06 1.75585592E-05
v 6.84728229E-06 2.32607121E-07 1.75730547E-05
v 4.74656053E-06 -4.83887743E-06 1.75730584E-05
v 4.21631057E-06 -1.64849598E-06 1.8474122E-05
v 3.89845354E-06 2.32543456E-07 1.86256912E-05
v -3.24956005E-07 2.32575289E-07 1.9117022E-05
v 2.66146867E-06 -2.75378579E-06 1.86256912E-05
v -1.72372474E-05 -6.77276057E-06 -5.26330723E-06
v 3.53246401E-06 -9.07982758E-06 1.57682098E-05
v 2.44659282E-06 -6.4583096E-06 1.75585592E-05
v 1.55614703E-06 -4.30862747E-06 1.84741257E-05
v 2.66146867E-06 -2.75378579E-06 1.86256912E-05
v -3.24956005E-07 2.32575289E-07 1.9117022E-05
v -3.24892341E-07 -3.9908341E-06 1.86256893E-05
v -3.24892341E-07 -6.93956781E-06 1.75730547E-05
v 4.56495036E-06 -1.15725779E-05 1.32850228E-05
v -3.24892341E-07 -9.84892358E-06 1.57700233E-05
v 5.42461339E-06 -1.36479293E-05 1.024618E-05
v -3.24892341E-07 -1.25599881E-05 1.32850228E-05
v 6.06402045E-06 -1.51915974E-05 6.78072547E-06
v -3.24860508E-07 -1.48088957E-05 1.024618E-05
v -3.24892341E-07 -1.64816811E-05 6.78072547E-06
v -6.71380485E-06 -1.51915656E-05 6.78072547E-06
v -6.07442962E-06 -1.36479612E-05 1.024618E-05
v -5.21473521E-06 -1.15725461E-05 1.32850228E-05
v -4.18218497E-06 -9.0798585E-06 1.57682098E-05
v -3.09631378E-06 -6.4583096E-06 1.75585592E-05
v -2.20593188E-06 -4.3086593E-06 1.84741257E-05
v -3.24892341E-07 -3.9908341E-06 1.86256893E-05
v -3.24956005E-07 2.32575289E-07 1.9117022E-05
v -3.31128513E-06 -2.75378579E-06 1.86256912E-05
v -5.39634539E-06 -4.83890926E-06 1.75730584E-05
v -7.45358284E-06 -6.89608305E-06 1.57700233E-05
v -9.37056211E-06 -8.81312644E-06 1.32850228E-05
v -1.09608027E-05 -1.04033352E-05 1.024618E-05
v -1.21436706E-05 -1.15862349E-05 6.78072547E-06
v -1.28916618E-05 -1.23341624E-05 2.47299658E-06
v -1.67252711E-05 -6.56065413E-06 2.47299749E-06
v -1.57490977E-05 -6.15636918E-06 6.78072547E-06
v -1.42053968E-05 -5.51693029E-06 1.024618E-05
v -1.21300782E-05 -4.65726771E-06 1.32850228E-05
v -9.637326E-06 -3.62471724E-06 1.57682098E-05
v -7.01577756E-06 -2.53890994E-06 1.75585592E-05
v -4.8661268E-06 -1.64846404E-06 1.84741257E-05
v -3.31128513E-06 -2.75378579E-06 1.86256912E-05
v -3.24956005E-07 2.32575289E-07 1.9117022E-05
v -4.54826977E-06 2.32543456E-07 1.86256912E-05
v -7.49703531E-06 2.32607121E-07 1.75730547E-05
v -1.04064238E-05 2.32607121E-07 1.57700233E-05
v -1.31174556E-05 2.32575289E-07 1.32850209E-05
v -1.53663641E-05 2.32575289E-07 1.024618E-05
v -1.70391795E-05 2.32543456E-07 6.78072547E-06
v -1.80970055E-05 2.32543456E-07 2.47299658E-06
v -1.86517682E-05 2.32575289E-07 -5.26330723E-06
v -1.742739E-05 7.31663522E-06 -1.84891942E-05
v -1.3450498E-05 1.33582134E-05 -3.49938528E-05
v -1.34296797E-05 1.33372978E-05 -1.84891942E-05
v -7.42022121E-06 1.73622266E-05 -3.49938528E-05
v -1.72372474E-05 7.23787934E-06 -5.26330723E-06
v -1.67252056E-05 7.02583611E-06 2.47299749E-06
v -1.57490977E-05 6.62148796E-06 6.78072547E-06
v -1.4205365E-05 5.98208089E-06 1.024618E-05
v -7.40898395E-06 1.73350727E-05 -1.84891942E-05
v -3.24892341E-07 1.87949863E-05 -3.49938528E-05
v -1.32839778E-05 1.31916286E-05 -5.26330723E-06
v -1.28916618E-05 1.27993126E-05 2.47299658E-06
v -1.21437024E-05 1.20513223E-05 6.78072547E-06
v -3.24924173E-07 1.87655714E-05 -1.84891942E-05
v 6.77043681E-06 1.73622575E-05 -3.49938528E-05
v -7.33019669E-06 1.71448992E-05 -5.26330723E-06
v -7.11815346E-06 1.6632921E-05 2.47299749E-06
v 6.75916772E-06 1.733504E-05 -1.84891942E-05
v 1.28007132E-05 1.33581807E-05 -3.49938528E-05
v -3.24892341E-07 1.85594818E-05 -5.26330723E-06
v 1.27798949E-05 1.33373305E-05 -1.84891942E-05
v 1.68047263E-05 7.32793615E-06 -3.49938528E-05
v -1.09608354E-05 1.08684853E-05 1.024618E-05
v -6.71380485E-06 1.56567494E-05 6.78072547E-06
v -3.24860508E-07 1.80046263E-05 2.47299658E-06
v 6.68044368E-06 1.71449628E-05 -5.26330723E-06
v 1.67775725E-05 7.31663522E-06 -1.84891942E-05
v 1.82374552E-05 2.32575289E-07 -3.49938528E-05
v 1.82081039E-05 2.32575289E-07 -1.84891942E-05
v 1.26341611E-05 1.31916286E-05 -5.26330723E-06
v 1.65874644E-05 7.23787934E-06 -5.26330723E-06
v 1.80020143E-05 2.32575289E-07 -5.26330678E-06
v 1.74471897E-05 2.32575289E-07 2.47299749E-06
v 1.60754844E-05 7.0257729E-06 2.47299658E-06
v 1.63893637E-05 2.32575289E-07 6.78072547E-06
v 6.4684009E-06 1.66328573E-05 2.47299749E-06
v 1.2241876E-05 1.27993444E-05 2.47299658E-06
v 1.50993128E-05 6.62145612E-06 6.78072547E-06
v 1.47166429E-05 2.32575289E-07 1.02461781E-05
v 1.14938857E-05 1.20513223E-05 6.78072547E-06
v 1.35556757E-05 5.98204906E-06 1.02461781E-05
v 1.24676399E-05 2.32575289E-07 1.32850228E-05
v 6.06402045E-06 1.56568112E-05 6.78072547E-06
v 1.03110506E-05 1.0868549E-05 1.024618E-05
v 1.14802615E-05 5.12241832E-06 1.32850209E-05
v 9.7565744E-06 2.32607121E-07 1.57700233E-05
v -3.24892341E-07 1.69468312E-05 6.78072547E-06
v 5.42461339E-06 1.41130167E-05 1.024618E-05
v 8.72077726E-06 9.27824476E-06 1.32850209E-05
v 8.9874784E-06 4.08993174E-06 1.57682098E-05
v 6.84728229E-06 2.32607121E-07 1.75730547E-05
v -3.24892341E-07 1.52740777E-05 1.024618E-05
v 4.56495036E-06 1.20377608E-05 1.32850228E-05
v 6.80379799E-06 7.36129732E-06 1.57700233E-05
v 6.36599225E-06 3.00406032E-06 1.75585592E-05
v -6.07433412E-06 1.41130477E-05 1.024618E-05
v -3.24892341E-07 1.30251392E-05 1.32850228E-05
v 4.2163424E-06 2.11358292E-06 1.8474122E-05
v 3.89845354E-06 2.32543456E-07 1.86256912E-05
v -3.24956005E-07 2.32575289E-07 1.9117022E-05
v 2.6615005E-06 3.21893617E-06 1.86256912E-05
v 4.74656053E-06 5.30402804E-06 1.75730547E-05
v 3.53249607E-06 9.5449459E-06 1.57682098E-05
v -5.21476704E-06 1.20376972E-05 1.32850228E-05
v -3.24892341E-07 1.03140737E-05 1.57700233E-05
v 2.44656076E-06 6.92342792E-06 1.75585592E-05
v -9.37059394E-06 9.2782775E-06 1.32850228E-05
v 1.55614703E-06 4.77380991E-06 1.84741257E-05
v 2.6615005E-06 3.21893617E-06 1.86256912E-05
v -3.24956005E-07 2.32575289E-07 1.9117022E-05
v -3.24892341E-07 4.45588921E-06 1.86256912E-05
v -3.24892341E-07 7.40471842E-06 1.75730584E-05
v -4.1822168E-06 9.5449459E-06 1.57682098E-05
v -1.21300454E-05 5.12241832E-06 1.32850228E-05
v -7.45355055E-06 7.36123411E-06 1.57700233E-05
v -9.63729508E-06 4.0898999E-06 1.57682098E-05
v -3.09634561E-06 6.92342792E-06 1.75585592E-05
v -7.01577756E-06 3.00402871E-06 1.75585592E-05
v -5.39637676E-06 5.30402804E-06 1.75730547E-05
v -2.20593188E-06 4.77377807E-06 1.8474122E-05
v -3.24892341E-07 4.45588921E-06 1.86256912E-05
v -3.24956005E-07 2.32575289E-07 1.9117022E-05
v -3.31128513E-06 3.21890434E-06 1.86256912E-05
v -4.8661268E-06 2.11355086E-06 1.8474122E-05
v -4.54826977E-06 2.32543456E-07 1.86256912E-05
v -3.31128513E-06 3.21890434E-06 1.86256912E-05
v -3.24956005E-07 2.32575289E-07 1.9117022E-05
vt 0 0.75
vt 0 1
vt 0.0546264648 1
vt 0.0604553223 0.750976562
vt 0 0.5
vt 0.10925293 1
vt 0.0616149902 0.5
vt 0 0.25
vt 0.160644531 0.759765625
vt 0.33203125 1.07226562
vt 0.0604553223 0.249023438
vt 0 0
vt 0.0546264648 0
vt 0.165283203 0.5
vt 0.337646484 0.78515625
vt 0.5546875 1.14453125
vt 0.160644531 0.239990234
vt 0.10925293 0
vt 0.338867188 0.5
vt 0.5546875 0.802246094
vt 0.77734375 1.07226562
vt 0.337646484 0.21496582
vt 0.33203125 -0.0720825195
vt 0.77734375 0.784179688
vt 1 1
vt 1 0.75
vt 0.5546875 0.5
vt 0.5546875 0.197998047
vt 0.5546875 -0.144165039
vt 0.77734375 0.5
vt 1 0.5
vt 0.77734375 0.215942383
vt 0.77734375 -0.0720825195
vt 1 0.25
vt 1 0
vt 0 0.75
vt 0 1
vt 0.0546264648 1
vt 0.0604553223 0.750976562
vt 0 0.5
vt 0.10925293 1
vt 0.0616149902 0.5
vt 0 0.25
vt 0.160644531 0.759765625
vt 0.33203125 1.07226562
vt 0.0604553223 0.249023438
vt 0 0
vt 0.0546264648 0
vt 0.165283203 0.5
vt 0.337646484 0.78515625
vt 0.5546875 1.14453125
vt 0.160644531 0.239990234
vt 0.10925293 0
vt 0.338867188 0.5
vt 0.5546875 0.802246094
vt 0.77734375 1.07226562
vt 0.337646484 0.21496582
vt 0.33203125 -0.0720825195
vt 0.77734375 0.784179688
vt 1 1
vt 1 0.75
vt 0.5546875 0.5
vt 0.5546875 0.197998047
vt 0.5546875 -0.144165039
vt 0.77734375 0.5
vt 1 0.5
vt 0.77734375 0.215942383
vt 0.77734375 -0.0720825195
vt 1 0.25
vt 1 0
vt 1 0.5
vt 1 0.5
vt 0.9375 0.5
vt 0.9375 0.501953125
vt 0.875 0.5
vt 1 0.5
vt 0.875 0.502441406
vt 0.8125 0.5
vt 0.9375 0.519042969
vt 0.8125 0.502441406
vt 0.75 0.5
vt 0.9375 0.564453125
vt 1 0.5625
vt 0.875 0.520996094
vt 0.75 0.502441406
vt 0.6875 0.5
vt 0.9375 0.625
vt 1 0.625
vt 0.875 0.564941406
vt 0.8125 0.520996094
vt 0.6875 0.502441406
vt 0.625 0.5
vt 0.875 0.625
vt 0.9375 0.6875
vt 1 0.6875
vt 0.8125 0.564941406
vt 0.75 0.520996094
vt 0.625 0.502441406
vt 0.5625 0.5
vt 0.875 0.6875
vt 0.9375 0.75
vt 1 0.75
vt 0.75 0.564941406
vt 0.6875 0.520996094
vt 0.5625 0.502441406
vt 0.5 0.5
vt 0.875 0.75
vt 0.9375 0.812011719
vt 1 0.8125
vt 0.6875 0.564941406
vt 0.625 0.520996094
vt 0.5 0.502441406
vt 0.4375 0.5
vt 0.875 0.812011719
vt 0.9375 0.870605469
vt 1 0.875
vt 0.875 0.875
vt 0.9375 0.916015625
vt 0.96875 0.9375
vt 0.9375 1
vt 0.90625 0.9375
vt 0.5625 0.520996094
vt 0.8125 0.812011719
vt 0.8125 0.870605469
vt 0.8125 0.916015625
vt 0.84375 0.9375
vt 0.8125 1
vt 0.78125 0.9375
vt 0.75 0.875
vt 0.8125 0.75
vt 0.75 0.812011719
vt 0.8125 0.6875
vt 0.75 0.75
vt 0.8125 0.625
vt 0.75 0.6875
vt 0.75 0.625
vt 0.6875 0.625
vt 0.6875 0.6875
vt 0.6875 0.75
vt 0.6875 0.812011719
vt 0.6875 0.870605469
vt 0.6875 0.916015625
vt 0.71875 0.9375
vt 0.6875 1
vt 0.65625 0.9375
vt 0.625 0.875
vt 0.625 0.812011719
vt 0.625 0.75
vt 0.625 0.6875
vt 0.625 0.625
vt 0.625 0.564941406
vt 0.5625 0.564941406
vt 0.5625 0.625
vt 0.5625 0.6875
vt 0.5625 0.75
vt 0.5625 0.812011719
vt 0.5625 0.870605469
vt 0.5625 0.916015625
vt 0.59375 0.9375
vt 0.5625 1
vt 0.53125 0.9375
vt 0.5 0.875
vt 0.5 0.812011719
vt 0.5 0.75
vt 0.5 0.6875
vt 0.5 0.625
vt 0.5 0.564941406
vt 0.5 0.520996094
vt 0.4375 0.502441406
vt 0.375 0.5
vt 0.375 0.502441406
vt 0.3125 0.5
vt 0.4375 0.520996094
vt 0.4375 0.564941406
vt 0.4375 0.625
vt 0.4375 0.6875
vt 0.3125 0.502441406
vt 0.25 0.5
vt 0.375 0.520996094
vt 0.375 0.564941406
vt 0.375 0.625
vt 0.25 0.502441406
vt 0.1875 0.5
vt 0.3125 0.520996094
vt 0.3125 0.564941406
vt 0.1875 0.502441406
vt 0.125 0.5
vt 0.25 0.520996094
vt 0.125 0.502441406
vt 0.0625 0.5
vt 0.375 0.6875
vt 0.3125 0.625
vt 0.25 0.564941406
vt 0.1875 0.520996094
vt 0.0625 0.501953125
vt 0 0.5
vt 0 0.5
vt 0.125 0.520996094
vt 0.0625 0.519042969
vt 0 0.5
vt 0 0.5625
vt 0.0625 0.564453125
vt 0 0.625
vt 0.1875 0.564941406
vt 0.125 0.564941406
vt 0.0625 0.625
vt 0 0.6875
vt 0.125 0.625
vt 0.0625 0.6875
vt 0 0.75
vt 0.1875 0.625
vt 0.125 0.6875
vt 0.0625 0.75
vt 0 0.8125
vt 0.25 0.625
vt 0.1875 0.6875
vt 0.125 0.75
vt 0.0625 0.812011719
vt 0 0.875
vt 0.25 0.6875
vt 0.1875 0.75
vt 0.125 0.812011719
vt 0.0625 0.870605469
vt 0.3125 0.6875
vt 0.25 0.75
vt 0.0625 0.916015625
vt 0.03125 0.9375
vt 0.0625 1
vt 0.09375 0.9375
vt 0.125 0.875
vt 0.1875 0.812011719
vt 0.3125 0.75
vt 0.25 0.812011719
vt 0.1875 0.870605469
vt 0.375 0.75
vt 0.1875 0.916015625
vt 0.15625 0.9375
vt 0.1875 1
vt 0.21875 0.9375
vt 0.25 0.875
vt 0.3125 0.812011719
vt 0.4375 0.75
vt 0.375 0.812011719
vt 0.4375 0.812011719
vt 0.3125 0.870605469
vt 0.4375 0.870605469
vt 0.375 0.875
vt 0.3125 0.916015625
vt 0.28125 0.9375
vt 0.3125 1
vt 0.34375 0.9375
vt 0.4375 0.916015625
vt 0.46875 0.9375
vt 0.40625 0.9375
vt 0.4375 1
vn 0.55078125 0.00538253784 0.834472656
vn 0.660644531 0.00926208496 0.750488281
vn 0.647949219 0.0275268555 0.761230469
vn 0.570800781 0.0182495117 0.821289062
vn 0.339599609 0.00244903564 0.940429688
vn 0.611328125 0.0445556641 0.790039062
vn 0.331054688 0.00938415527 0.943359375
vn 0.110229492 0.00175285339 0.994140625
vn 0.535644531 0.0335693359 0.84375
vn 0.567382812 0.0336303711 0.822753906
vn 0.0708618164 0.00861358643 0.997558594
vn -0.0257110596 0.00270271301 0.999511719
vn -0.0263671875 0.0121459961 0.999511719
vn 0.306640625 0.0184783936 0.951660156
vn 0.494628906 0.0263519287 0.868652344
vn 0.545898438 0.000598430634 0.837890625
vn 0.0643920898 0.0178070068 0.997558594
vn -0.022857666 0.0217590332 0.999511719
vn 0.280029297 0.0149383545 0.959960938
vn 0.475097656 -0.000113010406 0.879882812
vn 0.548828125 -0.0300140381 0.835449219
vn 0.0606689453 0.0149078369 0.998046875
vn -0.0158691406 0.0175628662 0.999511719
vn 0.484863281 -0.0274810791 0.874023438
vn 0.559082031 -0.0449829102 0.828125
vn 0.449951172 -0.0309143066 0.892578125
vn 0.270019531 -0.000760555267 0.962890625
vn 0.0626831055 0.000198125839 0.998046875
vn -0.00887298584 0.000973701477 1
vn 0.285888672 -0.0174560547 0.958007812
vn 0.299560547 -0.0236663818 0.953613281
vn 0.0760498047 -0.0151443481 0.997070312
vn 0.000513076782 -0.0148010254 1
vn 0.140869141 -0.018951416 0.989746094
vn 0.00868988037 -0.022064209 0.999511719
vn -0.55078125 -0.00538253784 0.834472656
vn -0.660644531 -0.00926208496 0.750488281
vn -0.647949219 -0.0275268555 0.761230469
vn -0.570800781 -0.0182495117 0.821289062
vn -0.339599609 -0.00244903564 0.940429688
vn -0.611328125 -0.0445556641 0.790039062
vn -0.331054688 -0.00938415527 0.943359375
vn -0.110229492 -0.00175380707 0.994140625
vn -0.535644531 -0.0335693359 0.84375
vn -0.567382812 -0.0336303711 0.822753906
vn -0.0708618164 -0.00861358643 0.997558594
vn 0.0257110596 -0.00270271301 0.999511719
vn 0.0263671875 -0.0121459961 0.999511719
vn -0.306640625 -0.0184783936 0.951660156
vn -0.494628906 -0.0263519287 0.868652344
vn -0.545898438 -0.000598430634 0.837890625
vn -0.0643920898 -0.0178070068 0.997558594
vn 0.022857666 -0.0217590332 0.999511719
vn -0.280029297 -0.0149383545 0.959960938
vn -0.475097656 0.000112950802 0.879882812
vn -0.548828125 0.0300140381 0.835449219
vn -0.0606689453 -0.0149078369 0.998046875
vn 0.0158691406 -0.0175628662 0.999511719
vn -0.484863281 0.0274810791 0.874023438
vn -0.559082031 0.0449829102 0.828125
vn -0.449951172 0.0309143066 0.892578125
vn -0.270019531 0.000760555267 0.962890625
vn -0.0626831055 -0.000198245049 0.998046875
vn 0.00887298584 -0.000973701477 1
vn -0.285888672 0.0174560547 0.958007812
vn -0.299560547 0.0236663818 0.953613281
vn -0.0760498047 0.0151443481 0.997070312
vn -0.000513076782 0.0148010254 1
vn -0.140869141 0.018951416 0.989746094
vn -0.00868988037 0.022064209 0.999511719
vn 1 1.1920929E-07 0.00867462158
vn 1 8.94069672E-07 0.00178050995
vn 0.923828125 -0.382568359 0.00177764893
vn 0.923828125 -0.382568359 0.00865936279
vn 0.70703125 -0.70703125 0.00178146362
vn 0.999023438 -1.7285347E-06 0.0434265137
vn 0.70703125 -0.70703125 0.00867462158
vn 0.382568359 -0.923828125 0.00178146362
vn 0.922851562 -0.382324219 0.0433654785
vn 0.382568359 -0.923828125 0.00866699219
vn -8.34465027E-07 -1 0.00178337097
vn 0.913085938 -0.378173828 0.153808594
vn 0.98828125 -1.96695328E-06 0.153930664
vn 0.706542969 -0.706542969 0.0434265137
vn -0 -1 0.00867462158
vn -0.382568359 -0.923828125 0.00177955627
vn 0.870605469 -0.360595703 0.334228516
vn 0.942382812 -1.49011612E-06 0.334228516
vn 0.698730469 -0.698730469 0.153930664
vn 0.382324219 -0.922851562 0.0433654785
vn -0.382568359 -0.923828125 0.00866699219
vn -0.70703125 -0.70703125 0.0017824173
vn 0.666503906 -0.666503906 0.334228516
vn 0.793945312 -0.328857422 0.51171875
vn 0.858886719 -2.2649765E-06 0.51171875
vn 0.378173828 -0.913085938 0.153808594
vn 5.36441803E-07 -0.999023438 0.0434265137
vn -0.70703125 -0.70703125 0.00867462158
vn -0.923828125 -0.382568359 0.00178146362
vn 0.607421875 -0.607421875 0.51171875
vn 0.691894531 -0.286621094 0.662597656
vn 0.748535156 -7.74860382E-07 0.663085938
vn 5.36441803E-07 -0.98828125 0.153930664
vn -0.382324219 -0.922851562 0.0433654785
vn -0.923828125 -0.382568359 0.00866699219
vn -1 -1.78813934E-07 0.00178432465
vn 0.529296875 -0.529296875 0.663085938
vn 0.56640625 -0.23449707 0.790039062
vn 0.61328125 2.92062759E-06 0.790039062
vn -0.378173828 -0.913085938 0.153808594
vn -0.706542969 -0.706542969 0.0434265137
vn -1 -5.96046448E-07 0.00867462158
vn -0.923828125 0.382568359 0.00178337097
vn 0.43359375 -0.43359375 0.790039062
vn 0.416992188 -0.172729492 0.892578125
vn 0.452636719 8.34465027E-07 0.891601562
vn 0.320068359 -0.320068359 0.891601562
vn 0.255859375 -0.106018066 0.9609375
vn 0.224853516 -1.90734863E-06 0.974609375
vn -1.54972076E-06 4.17232513E-07 1
vn 0.158935547 -0.158935547 0.974609375
vn -0.922851562 -0.382324219 0.0433654785
vn 0.23449707 -0.56640625 0.790039062
vn 0.172729492 -0.416992188 0.892578125
vn 0.106018066 -0.255859375 0.9609375
vn 0.158935547 -0.158935547 0.974609375
vn -1.54972076E-06 4.17232513E-07 1
vn 6.55651093E-07 -0.224853516 0.974609375
vn 6.55651093E-07 -0.452636719 0.891601562
vn 0.286621094 -0.691894531 0.662597656
vn -2.38418579E-07 -0.61328125 0.790039062
vn 0.328857422 -0.793945312 0.51171875
vn -1.78813934E-07 -0.748535156 0.663085938
vn 0.360595703 -0.870605469 0.334228516
vn 1.66893005E-06 -0.858886719 0.51171875
vn -0 -0.942382812 0.334228516
vn -0.360595703 -0.870605469 0.334228516
vn -0.328857422 -0.793945312 0.51171875
vn -0.286621094 -0.691894531 0.662597656
vn -0.23449707 -0.56640625 0.790039062
vn -0.172729492 -0.416992188 0.892578125
vn -0.106018066 -0.255859375 0.9609375
vn 6.55651093E-07 -0.224853516 0.974609375
vn -1.54972076E-06 4.17232513E-07 1
vn -0.158935547 -0.158935547 0.974609375
vn -0.320068359 -0.320068359 0.891601562
vn -0.43359375 -0.43359375 0.790039062
vn -0.529296875 -0.529296875 0.663085938
vn -0.607421875 -0.607421875 0.51171875
vn -0.666503906 -0.666503906 0.334228516
vn -0.698730469 -0.698730469 0.153930664
vn -0.913085938 -0.378173828 0.153808594
vn -0.870605469 -0.360595703 0.334228516
vn -0.793945312 -0.328857422 0.51171875
vn -0.691894531 -0.286621094 0.662597656
vn -0.56640625 -0.23449707 0.790039062
vn -0.416992188 -0.172729492 0.892578125
vn -0.255859375 -0.106018066 0.9609375
vn -0.158935547 -0.158935547 0.974609375
vn -1.54972076E-06 4.17232513E-07 1
vn -0.224853516 0 0.974609375
vn -0.452636719 1.96695328E-06 0.891601562
vn -0.61328125 2.92062759E-06 0.790039062
vn -0.748535156 2.08616257E-06 0.663085938
vn -0.858886719 1.96695328E-06 0.51171875
vn -0.942382812 6.55651093E-07 0.334228516
vn -0.98828125 1.25169754E-06 0.153930664
vn -0.999023438 1.1920929E-06 0.0434265137
vn -0.923828125 0.382568359 0.00866699219
vn -0.70703125 0.70703125 0.00178527832
vn -0.70703125 0.70703125 0.00867462158
vn -0.382568359 0.923828125 0.00178146362
vn -0.922851562 0.382324219 0.0433654785
vn -0.913085938 0.378173828 0.153808594
vn -0.870605469 0.360595703 0.334228516
vn -0.793945312 0.328857422 0.51171875
vn -0.382568359 0.923828125 0.00866699219
vn -0 1 0.00178337097
vn -0.706542969 0.706542969 0.0434265137
vn -0.698730469 0.698730469 0.153930664
vn -0.666503906 0.666503906 0.334228516
vn -1.07288361E-06 1 0.00867462158
vn 0.382568359 0.923828125 0.00178337097
vn -0.382324219 0.922851562 0.0433654785
vn -0.378173828 0.913085938 0.153808594
vn 0.382568359 0.923828125 0.00866699219
vn 0.70703125 0.70703125 0.00178527832
vn -8.94069672E-07 0.999023438 0.0434265137
vn 0.70703125 0.70703125 0.00867462158
vn 0.923828125 0.382568359 0.00178050995
vn -0.607421875 0.607421875 0.51171875
vn -0.360595703 0.870605469 0.334228516
vn 8.94069672E-07 0.98828125 0.153930664
vn 0.382324219 0.922851562 0.0433654785
vn 0.923828125 0.382568359 0.00865936279
vn 1 8.94069672E-07 0.00178050995
vn 1 1.1920929E-07 0.00867462158
vn 0.706542969 0.706542969 0.0434265137
vn 0.922851562 0.382324219 0.0433654785
vn 0.999023438 -1.7285347E-06 0.0434265137
vn 0.98828125 -1.96695328E-06 0.153930664
vn 0.913085938 0.378173828 0.153808594
vn 0.942382812 -1.49011612E-06 0.334228516
vn 0.378173828 0.913085938 0.153808594
vn 0.698730469 0.698730469 0.153930664
vn 0.870605469 0.360595703 0.333984375
vn 0.858886719 -2.2649765E-06 0.51171875
vn 0.666503906 0.666503906 0.334228516
vn 0.793945312 0.328857422 0.51171875
vn 0.748535156 -7.74860382E-07 0.663085938
vn 0.360595703 0.870605469 0.334228516
vn 0.607421875 0.607421875 0.51171875
vn 0.691894531 0.286621094 0.662597656
vn 0.61328125 2.92062759E-06 0.790039062
vn -1.07288361E-06 0.942382812 0.334228516
vn 0.328857422 0.793945312 0.51171875
vn 0.529296875 0.529296875 0.663085938
vn 0.56640625 0.23449707 0.790039062
vn 0.452636719 8.34465027E-07 0.891601562
vn -1.49011612E-06 0.858886719 0.51171875
vn 0.286621094 0.691894531 0.662597656
vn 0.43359375 0.43359375 0.790039062
vn 0.416992188 0.172729492 0.892578125
vn -0.328857422 0.793945312 0.51171875
vn -1.78813934E-06 0.748535156 0.663085938
vn 0.255859375 0.105957031 0.9609375
vn 0.224853516 -1.90734863E-06 0.974609375
vn -1.54972076E-06 4.17232513E-07 1
vn 0.158935547 0.158935547 0.974609375
vn 0.320068359 0.320068359 0.891601562
vn 0.23449707 0.56640625 0.790039062
vn -0.286621094 0.691894531 0.662597656
vn -1.90734863E-06 0.61328125 0.790039062
vn 0.172729492 0.416992188 0.892578125
vn -0.529296875 0.529296875 0.663085938
vn 0.106018066 0.255859375 0.9609375
vn 0.158935547 0.158935547 0.974609375
vn -1.54972076E-06 4.17232513E-07 1
vn -1.01327896E-06 0.224853516 0.974609375
vn -1.07288361E-06 0.452636719 0.891601562
vn -0.23449707 0.56640625 0.790039062
vn -0.691894531 0.286621094 0.662597656
vn -0.43359375 0.43359375 0.790039062
vn -0.56640625 0.234619141 0.790039062
vn -0.172729492 0.416992188 0.892578125
vn -0.416992188 0.172729492 0.892578125
vn -0.320068359 0.320068359 0.891601562
vn -0.106018066 0.255859375 0.9609375
vn -1.01327896E-06 0.224853516 0.974609375
vn -1.54972076E-06 4.17232513E-07 1
vn -0.158935547 0.158935547 0.974609375
vn -0.255859375 0.105957031 0.9609375
vn -0.224853516 0 0.974609375
vn -0.158935547 0.158935547 0.974609375
vn -1.54972076E-06 4.17232513E-07 1
g Propeller2_0
f 3/3/3 2/2/2 1/1/1
f 4/4/4 3/3/3 1/1/1
f 4/4/4 1/1/1 5/5/5
f 6/6/6 3/3/3 4/4/4
f 7/7/7 4/4/4 5/5/5
f 7/7/7 5/5/5 8/8/8
f 9/9/9 6/6/6 4/4/4
f 9/9/9 4/4/4 7/7/7
f 10/10/10 6/6/6 9/9/9
f 11/11/11 7/7/7 8/8/8
f 11/11/11 8/8/8 12/12/12
f 13/13/13 11/11/11 12/12/12
f 14/14/14 9/9/9 7/7/7
f 14/14/14 7/7/7 11/11/11
f 15/15/15 10/10/10 9/9/9
f 15/15/15 9/9/9 14/14/14
f 16/16/16 10/10/10 15/15/15
f 17/17/17 11/11/11 13/13/13
f 17/17/17 14/14/14 11/11/11
f 18/18/18 17/17/17 13/13/13
f 19/19/19 15/15/15 14/14/14
f 19/19/19 14/14/14 17/17/17
f 20/20/20 16/16/16 15/15/15
f 20/20/20 15/15/15 19/19/19
f 21/21/21 16/16/16 20/20/20
f 22/22/22 17/17/17 18/18/18
f 22/22/22 19/19/19 17/17/17
f 23/23/23 22/22/22 18/18/18
f 24/24/24 21/21/21 20/20/20
f 25/25/25 21/21/21 24/24/24
f 26/26/26 25/25/25 24/24/24
f 27/27/27 20/20/20 19/19/19
f 27/27/27 19/19/19 22/22/22
f 24/24/24 20/20/20 27/27/27
f 28/28/28 22/22/22 23/23/23
f 28/28/28 27/27/27 22/22/22
f 29/29/29 28/28/28 23/23/23
f 26/26/26 24/24/24 30/30/30
f 30/30/30 24/24/24 27/27/27
f 30/30/30 27/27/27 28/28/28
f 31/31/31 26/26/26 30/30/30
f 32/32/32 28/28/28 29/29/29
f 32/32/32 30/30/30 28/28/28
f 31/31/31 30/30/30 32/32/32
f 33/33/33 32/32/32 29/29/29
f 34/34/34 31/31/31 32/32/32
f 34/34/34 32/32/32 33/33/33
f 35/35/35 34/34/34 33/33/33
f 38/38/38 37/37/37 36/36/36
f 39/39/39 38/38/38 36/36/36
f 39/39/39 36/36/36 40/40/40
f 41/41/41 38/38/38 39/39/39
f 42/42/42 39/39/39 40/40/40
f 42/42/42 40/40/40 43/43/43
f 44/44/44 41/41/41 39/39/39
f 44/44/44 39/39/39 42/42/42
f 45/45/45 41/41/41 44/44/44
f 46/46/46 42/42/42 43/43/43
f 46/46/46 43/43/43 47/47/47
f 48/48/48 46/46/46 47/47/47
f 49/49/49 44/44/44 42/42/42
f 49/49/49 42/42/42 46/46/46
f 50/50/50 45/45/45 44/44/44
f 50/50/50 44/44/44 49/49/49
f 51/51/51 45/45/45 50/50/50
f 52/52/52 46/46/46 48/48/48
f 52/52/52 49/49/49 46/46/46
f 53/53/53 52/52/52 48/48/48
f 54/54/54 50/50/50 49/49/49
f 54/54/54 49/49/49 52/52/52
f 55/55/55 51/51/51 50/50/50
f 55/55/55 50/50/50 54/54/54
f 56/56/56 51/51/51 55/55/55
f 57/57/57 52/52/52 53/53/53
f 57/57/57 54/54/54 52/52/52
f 58/58/58 57/57/57 53/53/53
f 59/59/59 56/56/56 55/55/55
f 60/60/60 56/56/56 59/59/59
f 61/61/61 60/60/60 59/59/59
f 62/62/62 55/55/55 54/54/54
f 62/62/62 54/54/54 57/57/57
f 59/59/59 55/55/55 62/62/62
f 63/63/63 57/57/57 58/58/58
f 63/63/63 62/62/62 57/57/57
f 64/64/64 63/63/63 58/58/58
f 61/61/61 59/59/59 65/65/65
f 65/65/65 59/59/59 62/62/62
f 65/65/65 62/62/62 63/63/63
f 66/66/66 61/61/61 65/65/65
f 67/67/67 63/63/63 64/64/64
f 67/67/67 65/65/65 63/63/63
f 66/66/66 65/65/65 67/67/67
f 68/68/68 67/67/67 64/64/64
f 69/69/69 66/66/66 67/67/67
f 69/69/69 67/67/67 68/68/68
f 70/70/70 69/69/69 68/68/68
f 73/73/73 72/72/72 71/71/71
f 74/74/74 73/73/73 71/71/71
f 75/75/75 73/73/73 74/74/74
f 74/74/74 71/71/71 76/76/76
f 77/77/77 75/75/75 74/74/74
f 78/78/78 75/75/75 77/77/77
f 79/79/79 74/74/74 76/76/76
f 77/77/77 74/74/74 79/79/79
f 80/80/80 78/78/78 77/77/77
f 81/81/81 78/78/78 80/80/80
f 82/82/82 79/79/79 76/76/76
f 83/83/83 82/82/82 76/76/76
f 84/84/84 77/77/77 79/79/79
f 80/80/80 77/77/77 84/84/84
f 85/85/85 81/81/81 80/80/80
f 86/86/86 81/81/81 85/85/85
f 87/87/87 82/82/82 83/83/83
f 88/88/88 87/87/87 83/83/83
f 82/82/82 89/89/89 79/79/79
f 89/89/89 84/84/84 79/79/79
f 90/90/90 80/80/80 84/84/84
f 85/85/85 80/80/80 90/90/90
f 91/91/91 86/86/86 85/85/85
f 92/92/92 86/86/86 91/91/91
f 87/87/87 93/93/93 82/82/82
f 93/93/93 89/89/89 82/82/82
f 94/94/94 87/87/87 88/88/88
f 95/95/95 94/94/94 88/88/88
f 89/89/89 96/96/96 84/84/84
f 96/96/96 90/90/90 84/84/84
f 97/97/97 85/85/85 90/90/90
f 91/91/91 85/85/85 97/97/97
f 98/98/98 92/92/92 91/91/91
f 99/99/99 92/92/92 98/98/98
f 100/100/100 93/93/93 87/87/87
f 94/94/94 100/100/100 87/87/87
f 101/101/101 94/94/94 95/95/95
f 102/102/102 101/101/101 95/95/95
f 96/96/96 103/103/103 90/90/90
f 103/103/103 97/97/97 90/90/90
f 104/104/104 91/91/91 97/97/97
f 98/98/98 91/91/91 104/104/104
f 105/105/105 99/99/99 98/98/98
f 106/106/106 99/99/99 105/105/105
f 107/107/107 100/100/100 94/94/94
f 101/101/101 107/107/107 94/94/94
f 108/108/108 101/101/101 102/102/102
f 109/109/109 108/108/108 102/102/102
f 103/103/103 110/110/110 97/97/97
f 110/110/110 104/104/104 97/97/97
f 111/111/111 98/98/98 104/104/104
f 105/105/105 98/98/98 111/111/111
f 112/112/112 106/106/106 105/105/105
f 113/113/113 106/106/106 112/112/112
f 114/114/114 107/107/107 101/101/101
f 108/108/108 114/114/114 101/101/101
f 115/115/115 108/108/108 109/109/109
f 116/116/116 115/115/115 109/109/109
f 115/115/115 117/117/117 108/108/108
f 117/117/117 114/114/114 108/108/108
f 118/118/118 115/115/115 116/116/116
f 115/115/115 118/118/118 117/117/117
f 119/119/119 118/118/118 116/116/116
f 118/118/118 119/119/119 120/120/120
f 121/121/121 118/118/118 120/120/120
f 118/118/118 121/121/121 117/117/117
f 112/112/112 105/105/105 122/122/122
f 122/122/122 105/105/105 111/111/111
f 114/114/114 123/123/123 107/107/107
f 117/117/117 124/124/124 114/114/114
f 124/124/124 123/123/123 114/114/114
f 125/125/125 124/124/124 117/117/117
f 126/126/126 125/125/125 117/117/117
f 125/125/125 126/126/126 127/127/127
f 128/128/128 125/125/125 127/127/127
f 125/125/125 128/128/128 129/129/129
f 124/124/124 125/125/125 129/129/129
f 124/124/124 129/129/129 123/123/123
f 123/123/123 130/130/130 107/107/107
f 107/107/107 130/130/130 100/100/100
f 129/129/129 131/131/131 123/123/123
f 123/123/123 131/131/131 130/130/130
f 130/130/130 132/132/132 100/100/100
f 100/100/100 132/132/132 93/93/93
f 131/131/131 133/133/133 130/130/130
f 130/130/130 133/133/133 132/132/132
f 132/132/132 134/134/134 93/93/93
f 93/93/93 134/134/134 89/89/89
f 134/134/134 96/96/96 89/89/89
f 132/132/132 135/135/135 134/134/134
f 133/133/133 135/135/135 132/132/132
f 134/134/134 136/136/136 96/96/96
f 135/135/135 136/136/136 134/134/134
f 136/136/136 103/103/103 96/96/96
f 136/136/136 137/137/137 103/103/103
f 137/137/137 110/110/110 103/103/103
f 135/135/135 138/138/138 136/136/136
f 138/138/138 137/137/137 136/136/136
f 133/133/133 139/139/139 135/135/135
f 139/139/139 138/138/138 135/135/135
f 131/131/131 140/140/140 133/133/133
f 140/140/140 139/139/139 133/133/133
f 141/141/141 140/140/140 131/131/131
f 129/129/129 141/141/141 131/131/131
f 142/142/142 141/141/141 129/129/129
f 143/143/143 142/142/142 129/129/129
f 142/142/142 143/143/143 144/144/144
f 145/145/145 142/142/142 144/144/144
f 142/142/142 145/145/145 146/146/146
f 141/141/141 142/142/142 146/146/146
f 141/141/141 146/146/146 140/140/140
f 140/140/140 147/147/147 139/139/139
f 146/146/146 147/147/147 140/140/140
f 139/139/139 148/148/148 138/138/138
f 147/147/147 148/148/148 139/139/139
f 138/138/138 149/149/149 137/137/137
f 148/148/148 149/149/149 138/138/138
f 149/149/149 150/150/150 137/137/137
f 137/137/137 150/150/150 110/110/110
f 150/150/150 151/151/151 110/110/110
f 110/110/110 151/151/151 104/104/104
f 151/151/151 111/111/111 104/104/104
f 151/151/151 152/152/152 111/111/111
f 152/152/152 122/122/122 111/111/111
f 150/150/150 153/153/153 151/151/151
f 153/153/153 152/152/152 151/151/151
f 149/149/149 154/154/154 150/150/150
f 154/154/154 153/153/153 150/150/150
f 148/148/148 155/155/155 149/149/149
f 155/155/155 154/154/154 149/149/149
f 147/147/147 156/156/156 148/148/148
f 156/156/156 155/155/155 148/148/148
f 157/157/157 156/156/156 147/147/147
f 146/146/146 157/157/157 147/147/147
f 158/158/158 157/157/157 146/146/146
f 159/159/159 158/158/158 146/146/146
f 158/158/158 159/159/159 160/160/160
f 161/161/161 158/158/158 160/160/160
f 158/158/158 161/161/161 162/162/162
f 157/157/157 158/158/158 162/162/162
f 157/157/157 162/162/162 156/156/156
f 156/156/156 163/163/163 155/155/155
f 162/162/162 163/163/163 156/156/156
f 155/155/155 164/164/164 154/154/154
f 163/163/163 164/164/164 155/155/155
f 154/154/154 165/165/165 153/153/153
f 164/164/164 165/165/165 154/154/154
f 165/165/165 166/166/166 153/153/153
f 153/153/153 166/166/166 152/152/152
f 166/166/166 167/167/167 152/152/152
f 152/152/152 167/167/167 122/122/122
f 167/167/167 168/168/168 122/122/122
f 168/168/168 112/112/112 122/122/122
f 169/169/169 112/112/112 168/168/168
f 169/169/169 113/113/113 112/112/112
f 170/170/170 113/113/113 169/169/169
f 171/171/171 170/170/170 169/169/169
f 172/172/172 170/170/170 171/171/171
f 173/173/173 169/169/169 168/168/168
f 171/171/171 169/169/169 173/173/173
f 167/167/167 174/174/174 168/168/168
f 174/174/174 173/173/173 168/168/168
f 166/166/166 175/175/175 167/167/167
f 175/175/175 174/174/174 167/167/167
f 165/165/165 176/176/176 166/166/166
f 176/176/176 175/175/175 166/166/166
f 177/177/177 172/172/172 171/171/171
f 178/178/178 172/172/172 177/177/177
f 179/179/179 171/171/171 173/173/173
f 177/177/177 171/171/171 179/179/179
f 174/174/174 180/180/180 173/173/173
f 180/180/180 179/179/179 173/173/173
f 175/175/175 181/181/181 174/174/174
f 181/181/181 180/180/180 174/174/174
f 182/182/182 178/178/178 177/177/177
f 183/183/183 178/178/178 182/182/182
f 184/184/184 177/177/177 179/179/179
f 182/182/182 177/177/177 184/184/184
f 180/180/180 185/185/185 179/179/179
f 185/185/185 184/184/184 179/179/179
f 186/186/186 183/183/183 182/182/182
f 187/187/187 183/183/183 186/186/186
f 188/188/188 182/182/182 184/184/184
f 186/186/186 182/182/182 188/188/188
f 189/189/189 187/187/187 186/186/186
f 190/190/190 187/187/187 189/189/189
f 191/191/191 181/181/181 175/175/175
f 176/176/176 191/191/191 175/175/175
f 181/181/181 192/192/192 180/180/180
f 192/192/192 185/185/185 180/180/180
f 185/185/185 193/193/193 184/184/184
f 193/193/193 188/188/188 184/184/184
f 194/194/194 186/186/186 188/188/188
f 189/189/189 186/186/186 194/194/194
f 195/195/195 190/190/190 189/189/189
f 196/196/196 190/190/190 195/195/195
f 197/197/197 196/196/196 195/195/195
f 195/195/195 189/189/189 198/198/198
f 198/198/198 189/189/189 194/194/194
f 197/197/197 195/195/195 199/199/199
f 199/199/199 195/195/195 198/198/198
f 200/200/200 197/197/197 199/199/199
f 201/201/201 200/200/200 199/199/199
f 202/202/202 201/201/201 199/199/199
f 202/202/202 199/199/199 198/198/198
f 203/203/203 201/201/201 202/202/202
f 204/204/204 194/194/194 188/188/188
f 193/193/193 204/204/204 188/188/188
f 205/205/205 198/198/198 194/194/194
f 205/205/205 202/202/202 198/198/198
f 204/204/204 205/205/205 194/194/194
f 206/206/206 203/203/203 202/202/202
f 206/206/206 202/202/202 205/205/205
f 207/207/207 203/203/203 206/206/206
f 208/208/208 205/205/205 204/204/204
f 208/208/208 206/206/206 205/205/205
f 209/209/209 207/207/207 206/206/206
f 209/209/209 206/206/206 208/208/208
f 210/210/210 207/207/207 209/209/209
f 211/211/211 204/204/204 193/193/193
f 211/211/211 208/208/208 204/204/204
f 212/212/212 209/209/209 208/208/208
f 212/212/212 208/208/208 211/211/211
f 213/213/213 210/210/210 209/209/209
f 213/213/213 209/209/209 212/212/212
f 214/214/214 210/210/210 213/213/213
f 215/215/215 211/211/211 193/193/193
f 215/215/215 193/193/193 185/185/185
f 192/192/192 215/215/215 185/185/185
f 216/216/216 212/212/212 211/211/211
f 216/216/216 211/211/211 215/215/215
f 217/217/217 213/213/213 212/212/212
f 217/217/217 212/212/212 216/216/216
f 218/218/218 214/214/214 213/213/213
f 218/218/218 213/213/213 217/217/217
f 219/219/219 214/214/214 218/218/218
f 220/220/220 215/215/215 192/192/192
f 220/220/220 216/216/216 215/215/215
f 221/221/221 217/217/217 216/216/216
f 221/221/221 216/216/216 220/220/220
f 222/222/222 218/218/218 217/217/217
f 222/222/222 217/217/217 221/221/221
f 223/223/223 219/219/219 218/218/218
f 223/223/223 218/218/218 222/222/222
f 224/224/224 220/220/220 192/192/192
f 224/224/224 192/192/192 181/181/181
f 191/191/191 224/224/224 181/181/181
f 225/225/225 221/221/221 220/220/220
f 225/225/225 220/220/220 224/224/224
f 223/223/223 226/226/226 219/219/219
f 226/226/226 227/227/227 219/219/219
f 227/227/227 226/226/226 228/228/228
f 226/226/226 229/229/229 228/228/228
f 229/229/229 226/226/226 230/230/230
f 226/226/226 223/223/223 230/230/230
f 230/230/230 223/223/223 222/222/222
f 231/231/231 222/222/222 221/221/221
f 231/231/231 221/221/221 225/225/225
f 230/230/230 222/222/222 231/231/231
f 232/232/232 224/224/224 191/191/191
f 232/232/232 225/225/225 224/224/224
f 233/233/233 231/231/231 225/225/225
f 233/233/233 225/225/225 232/232/232
f 234/234/234 230/230/230 231/231/231
f 234/234/234 231/231/231 233/233/233
f 235/235/235 232/232/232 191/191/191
f 235/235/235 191/191/191 176/176/176
f 234/234/234 236/236/236 230/230/230
f 236/236/236 237/237/237 230/230/230
f 237/237/237 236/236/236 238/238/238
f 236/236/236 239/239/239 238/238/238
f 239/239/239 236/236/236 240/240/240
f 236/236/236 234/234/234 240/240/240
f 240/240/240 234/234/234 233/233/233
f 241/241/241 233/233/233 232/232/232
f 241/241/241 232/232/232 235/235/235
f 240/240/240 233/233/233 241/241/241
f 242/242/242 235/235/235 176/176/176
f 242/242/242 176/176/176 165/165/165
f 164/164/164 242/242/242 165/165/165
f 243/243/243 241/241/241 235/235/235
f 243/243/243 235/235/235 242/242/242
f 244/244/244 242/242/242 164/164/164
f 244/244/244 243/243/243 242/242/242
f 163/163/163 244/244/244 164/164/164
f 245/245/245 240/240/240 241/241/241
f 245/245/245 241/241/241 243/243/243
f 246/246/246 244/244/244 163/163/163
f 162/162/162 246/246/246 163/163/163
f 247/247/247 243/243/243 244/244/244
f 247/247/247 245/245/245 243/243/243
f 246/246/246 247/247/247 244/244/244
f 245/245/245 248/248/248 240/240/240
f 248/248/248 245/245/245 247/247/247
f 248/248/248 249/249/249 240/240/240
f 249/249/249 248/248/248 250/250/250
f 248/248/248 251/251/251 250/250/250
f 251/251/251 248/248/248 247/247/247
f 252/252/252 246/246/246 162/162/162
f 246/246/246 252/252/252 247/247/247
f 253/253/253 252/252/252 162/162/162
f 252/252/252 254/254/254 247/247/247
f 252/252/252 253/253/253 255/255/255
f 254/254/254 252/252/252 255/255/255
